<svg width="123" height="51" viewBox="0 0 123 51" fill="none" xmlns="http://www.w3.org/2000/svg">
<g clip-path="url(#clip0_1_105)">
<path d="M0.996948 0.34375H1.25651C6.01945 0.386677 10.8253 0.386677 15.5872 0.430603C17.3313 0.404951 19.0553 0.805199 20.6097 1.59663C21.8189 2.20467 22.8355 3.13642 23.5463 4.2881C24.2572 5.43978 24.6344 6.76619 24.6359 8.11959C24.7935 9.87221 24.3836 11.6291 23.4669 13.1311C22.7874 14.1866 21.8072 15.0142 20.6527 15.5071C20.3532 15.6369 20.0038 15.8066 19.6134 15.9823C20.2194 16.1979 20.8254 16.3706 21.3455 16.5873C22.3318 17.0006 23.2088 17.6371 23.9074 18.4468C24.606 19.2564 25.1073 20.2171 25.3717 21.2534C25.9941 23.3225 25.9179 25.5391 25.155 27.5607C24.6634 28.9003 23.8219 30.0837 22.7179 30.9879C21.614 31.8921 20.2879 32.4839 18.8777 32.702C17.769 32.9472 16.6357 33.0631 15.5004 33.0474C11.0799 33.0883 6.66835 33.0883 2.29475 33.1332H0.996948C1.21325 22.247 1.21325 11.3172 0.996948 0.34375ZM8.48427 26.5234C8.55726 26.5335 8.6296 26.5478 8.70091 26.5664C10.6925 26.5664 12.7271 26.6093 14.7187 26.5234C15.1339 26.5371 15.5476 26.4685 15.9361 26.3215C16.3246 26.1745 16.6802 25.952 16.9823 25.6669C17.2844 25.3818 17.527 25.0397 17.6962 24.6603C17.8655 24.281 17.9579 23.8719 17.9682 23.4566C18.2278 21.3831 17.2754 19.5253 14.8505 19.3526C12.777 19.2228 10.6955 19.3116 8.61705 19.3116C8.57412 19.3116 8.53019 19.3546 8.44434 19.3546C8.48427 21.7285 8.48427 24.1035 8.48427 26.5234ZM8.44334 6.91063V12.7008C8.44334 13.0003 8.61605 13.0003 8.83268 13.0003C10.6077 13.0003 12.4266 13.0433 14.2016 13.0003C14.6028 13.0149 15.0025 12.9445 15.3746 12.7938C15.7467 12.6431 16.0827 12.4154 16.3607 12.1258C16.6387 11.8361 16.8523 11.491 16.9875 11.113C17.1228 10.7351 17.1767 10.3328 17.1456 9.93252C17.1881 9.5413 17.1445 9.14551 17.0178 8.77295C16.891 8.4004 16.6842 8.06012 16.4119 7.77602C16.1396 7.49192 15.8084 7.27089 15.4415 7.12846C15.0747 6.98602 14.6811 6.92565 14.2884 6.95156C13.2901 6.90864 12.3397 6.95156 11.3444 6.95156C10.435 6.91063 9.48258 6.91063 8.44334 6.91063Z" fill="#212121" fill-opacity="0.75"/>
<path d="M122.003 33.0885H113.084C112.825 33.0885 112.651 33.0885 112.565 32.789C111.58 30.2761 110.363 27.8606 108.928 25.5742C108.452 24.7536 107.93 23.8891 107.456 23.1114C106.546 23.9759 105.638 24.8395 104.771 25.707C104.658 25.871 104.612 26.072 104.641 26.2691C104.728 28.4723 104.814 30.7185 104.901 32.9218C104.903 32.9822 104.888 33.042 104.858 33.0945H97.4547C97.6713 22.2459 97.7142 11.4022 97.4547 0.558594H104.858C104.382 6.13116 104.685 11.6608 104.559 17.3202C104.688 17.2334 104.775 17.2334 104.858 17.1475L110.444 11.1856C110.92 10.6675 111.309 10.0625 111.741 9.50045C111.789 9.42702 111.853 9.36545 111.928 9.32046C112.003 9.27547 112.088 9.24826 112.175 9.24089H121.744C118.626 12.3946 115.596 15.4614 112.522 18.615C115.595 23.325 118.8 28.1639 122.003 33.0885Z" fill="#212121" fill-opacity="0.75"/>
<path d="M57.9745 34.0418C55.5363 34.0477 53.1422 33.3922 51.0472 32.145C48.7136 30.6644 47.0392 28.3426 46.3711 25.6609C45.3708 22.2982 45.5077 18.6994 46.7605 15.4223C47.4157 13.6292 48.5413 12.0453 50.0191 10.8367C51.497 9.62813 53.2727 8.8393 55.1602 8.55291C57.3835 8.10427 59.6805 8.17705 61.8709 8.76555C63.7735 9.22946 65.5115 10.2087 66.894 11.5958C68.2765 12.9829 69.25 14.7241 69.7076 16.6282C70.7913 20.1836 70.5306 24.0134 68.9748 27.389C68.2382 29.055 67.0951 30.5095 65.6504 31.619C64.2057 32.7285 62.5055 33.4575 60.7058 33.7393C59.7904 33.8691 58.8839 33.912 57.9745 34.0418ZM58.7102 24.9691H58.6673C58.6825 25.4199 58.7406 25.8681 58.841 26.3079C58.9279 26.6073 59.1006 26.9128 59.4899 26.8699C59.8792 26.783 59.8363 26.4376 59.7894 26.1791C59.5945 25.2387 59.5945 24.2683 59.7894 23.3279C59.9469 22.2621 59.7649 21.1738 59.2693 20.2172C58.8627 19.5936 58.2772 19.1075 57.5896 18.8225C56.902 18.5375 56.1443 18.4668 55.4158 18.6199C54.5724 18.7635 53.7664 19.0745 53.0451 19.5345C52.3238 19.9945 51.7018 20.5942 51.2159 21.2983C50.9993 21.5978 50.6529 21.9462 51.0861 22.2058C51.4755 22.5053 51.736 22.076 51.9087 21.7735C52.3089 21.1661 52.8312 20.6487 53.4424 20.2544C54.0536 19.8601 54.7404 19.5975 55.4587 19.4834C55.9453 19.3644 56.4539 19.3693 56.938 19.4976C57.4222 19.626 57.8664 19.8737 58.23 20.2182C58.4773 20.4919 58.6662 20.8131 58.7853 21.1622C58.9044 21.5113 58.9512 21.881 58.9229 22.2487C58.8839 23.1981 58.7541 24.1046 58.7102 24.9691ZM57.0221 25.3145C57.1089 26.0054 57.1519 26.6123 57.2816 27.2113C57.2841 27.2821 57.3036 27.3512 57.3386 27.4127C57.3737 27.4742 57.4231 27.5263 57.4827 27.5645C57.5423 27.6027 57.6103 27.6259 57.6808 27.632C57.7514 27.6381 57.8223 27.627 57.8876 27.5997C58.1871 27.4699 58.234 27.2542 58.1472 26.9088C58.012 26.4891 57.939 26.0519 57.9305 25.611C57.9577 24.8871 58.03 24.1656 58.1472 23.4507C58.2387 22.9999 58.2115 22.5331 58.0683 22.096C57.9251 21.6589 57.6708 21.2665 57.3303 20.9573C56.9897 20.6481 56.5747 20.4327 56.1259 20.3321C55.677 20.2316 55.2098 20.2494 54.7699 20.3839C54.115 20.5891 53.5106 20.9298 52.996 21.3838C52.4814 21.8379 52.0681 22.3952 51.7829 23.0194C51.5104 23.5682 51.3068 24.1487 51.177 24.7475C51.134 24.9202 51.3497 25.1358 51.4765 25.3525C51.6492 25.2227 51.9527 25.1368 51.9956 24.9641C52.4718 23.4517 53.0778 22.069 54.6361 21.3353C55.5885 20.903 57.1039 21.465 57.2317 22.5013C57.2637 23.0075 57.2513 23.5156 57.1948 24.0197C57.1799 24.4563 57.122 24.8893 57.0221 25.3145ZM56.1565 17.971C56.3595 17.9638 56.5626 17.9781 56.7625 18.0139C57.266 18.0372 57.7585 18.1689 58.2064 18.4C58.6544 18.631 59.0472 18.9559 59.3581 19.3526C60.2868 20.6386 60.6912 22.2298 60.4892 23.8031C60.4463 24.2783 60.3165 24.7535 60.3165 25.2287C60.3165 25.4014 60.616 25.5741 60.7498 25.7907C60.8795 25.6609 61.0962 25.4912 61.0962 25.3585C61.3413 24.222 61.3707 23.0496 61.183 21.9023C61.0533 21.4271 60.9235 20.904 60.8366 20.4338C60.7505 19.9255 60.5498 19.4436 60.2497 19.0245C59.9496 18.6053 59.558 18.2601 59.1046 18.0149C58.383 17.5637 57.5747 17.2691 56.732 17.1501C55.8894 17.0311 55.0311 17.0904 54.2128 17.3241C53.7242 17.4776 53.2583 17.6954 52.8272 17.972C52.6105 18.1017 52.351 18.3174 52.5676 18.6628C52.7843 19.0082 53.0438 18.7926 53.2604 18.6628C54.1164 18.1033 55.1402 17.8587 56.1565 17.971ZM55.3769 26.0932C55.5066 26.6113 55.5935 27.1734 55.7662 27.7344C55.8091 27.8642 56.0258 27.9501 56.1995 27.9501C56.3293 27.9501 56.459 27.7774 56.499 27.6506C56.5207 27.4929 56.5207 27.333 56.499 27.1754C56.456 26.4406 56.4121 25.7069 56.4121 24.9721C56.4121 24.4969 56.5419 23.9738 56.5858 23.5036C56.5837 23.2373 56.5103 22.9765 56.3732 22.7482C56.236 22.52 56.0402 22.3327 55.8061 22.2058C55.5199 22.1049 55.2116 22.0838 54.9142 22.1446C54.6169 22.2055 54.3416 22.346 54.118 22.5512C53.3118 23.491 52.801 24.6477 52.6495 25.8766C52.6062 26.1484 52.6062 26.4254 52.6495 26.6972C52.6924 26.8699 52.949 26.9967 53.1257 27.1724C53.2807 27.0129 53.3989 26.8214 53.4721 26.6113C53.4987 26.0875 53.5712 25.5671 53.6887 25.056C53.9224 24.4458 54.2281 23.8657 54.5992 23.3279C54.6809 23.1916 54.8127 23.0926 54.9665 23.0523C55.1203 23.012 55.2837 23.0335 55.4218 23.1123C55.5513 23.2106 55.6488 23.3451 55.7021 23.4987C55.7554 23.6524 55.7621 23.8184 55.7213 23.9758C55.5975 24.6237 55.5066 25.3155 55.3769 26.0932ZM56.7186 15.3794C56.5315 15.3577 56.3426 15.3577 56.1555 15.3794C55.9865 15.4956 55.8272 15.6255 55.6794 15.7677C55.8091 15.8975 55.9389 16.1131 56.1126 16.1131C56.5109 16.1989 56.9171 16.2424 57.3246 16.2429C57.8389 16.2749 58.3415 16.4099 58.8026 16.6399C59.2638 16.8698 59.674 17.1901 60.009 17.5816C61.3232 18.9889 62.1174 20.8027 62.2602 22.7229C62.2602 23.0683 62.4329 23.3279 62.7364 23.285C62.8662 23.285 63.0359 22.9396 63.0359 22.7239C62.9942 20.4937 62.0799 18.3687 60.4892 16.8049C59.4311 15.9146 58.101 15.4118 56.7186 15.3794ZM64.4255 20.7363C64.3415 20.3106 64.2257 19.8918 64.0791 19.4834C63.5899 18.1657 62.8387 16.9607 61.8709 15.9414C61.2929 15.2155 60.4817 14.7118 59.5748 14.5158C59.3152 14.4729 59.0117 14.4729 59.0117 14.8153C59.0117 14.988 59.2713 15.1607 59.445 15.2905C59.7987 15.4194 60.1342 15.5936 60.4433 15.8086C61.5684 16.7483 62.4457 17.9498 62.998 19.3077C63.2146 19.7829 63.3873 20.306 63.6469 20.7762C63.7065 20.861 63.7839 20.9318 63.8738 20.9836C63.9636 21.0353 64.0637 21.0667 64.167 21.0757C64.2089 21.0388 64.3387 20.8221 64.4255 20.7363ZM62.2173 14.429C62.0436 14.5587 61.8279 14.6017 61.784 14.6885C61.7957 14.8471 61.8564 14.9982 61.9577 15.1208C62.9743 15.8443 63.7087 16.8977 64.0362 18.1017C64.1231 18.3613 64.2528 18.7067 64.5553 18.5769C64.6851 18.534 64.8149 18.1017 64.772 17.8861C64.4979 16.767 63.913 15.7481 63.0848 14.9471C62.8177 14.7399 62.5264 14.5659 62.2173 14.429ZM54.121 26.3957C54.1301 26.7432 54.1591 27.0898 54.2078 27.4339C54.2508 27.6067 54.4674 27.6935 54.6411 27.8662C54.728 27.6935 54.9007 27.5208 54.9007 27.3481C54.9875 26.4836 55.0304 25.6629 55.0734 24.7994C55.0734 24.6696 55.0304 24.4999 54.9436 24.454C54.8764 24.437 54.8062 24.4359 54.7386 24.451C54.6709 24.4661 54.6078 24.4969 54.5543 24.5408C54.4117 24.7344 54.3098 24.9548 54.2548 25.1887C54.1419 25.5805 54.0966 25.9887 54.121 26.3957Z" fill="#212121" fill-opacity="0.75"/>
<path d="M88.4519 17.7974C88.3221 17.409 88.1923 17.0197 88.0186 16.6313C87.7609 15.9375 87.3016 15.3365 86.6999 14.9055C86.0981 14.4745 85.3813 14.2331 84.6414 14.2124C83.817 14.107 82.9801 14.2577 82.2443 14.6442C81.5085 15.0307 80.9094 15.6342 80.5283 16.3728C79.9595 17.3459 79.6328 18.4416 79.5759 19.5674C79.305 21.5364 79.59 23.5419 80.3985 25.3576C80.667 25.9749 81.0748 26.5217 81.5899 26.9551C82.105 27.3885 82.7135 27.6968 83.3676 27.8558C84.0218 28.0147 84.7039 28.0201 85.3604 27.8714C86.017 27.7227 86.6303 27.4241 87.1521 26.9988C87.9391 26.3509 88.4374 25.4176 88.5378 24.4032C90.8339 24.7915 93.0841 25.1379 95.3782 25.5263C95.1136 26.9105 94.5844 28.2308 93.8198 29.4147C93.0108 30.6299 91.9432 31.6513 90.6933 32.4056C89.4434 33.16 88.0423 33.6287 86.5901 33.7783C84.1154 34.2074 81.5705 33.9533 79.2295 33.0435C77.8717 32.5164 76.6431 31.7035 75.6269 30.6601C74.6107 29.6167 73.8306 28.367 73.3395 26.9958C71.869 23.3146 71.8227 19.2177 73.2097 15.5042C73.8146 13.6678 74.915 12.0342 76.3894 10.7835C77.8639 9.53278 79.6551 8.71358 81.5656 8.41623C84.4022 7.80259 87.3631 8.16822 89.9653 9.45348C91.2416 10.1097 92.3575 11.0393 93.2334 12.1761C94.1093 13.3129 94.7237 14.6289 95.0328 16.0303C95.0757 16.1601 94.9459 16.4187 94.8591 16.4187C92.7376 16.8939 90.6592 17.3261 88.5378 17.7584C88.5388 17.8403 88.5388 17.7974 88.4519 17.7974Z" fill="#212121" fill-opacity="0.75"/>
<path d="M46.2823 9.11392C45.6763 11.5328 45.0703 13.8709 44.5103 16.156C43.5579 15.9404 42.6484 15.6808 41.739 15.551C40.6683 15.329 39.5557 15.4326 38.5444 15.8484C37.5331 16.2642 36.6694 16.9732 36.0646 17.8841C35.4021 18.9584 35.0847 20.2098 35.1551 21.47C35.1551 24.4939 35.198 27.4748 35.242 30.4987C35.242 31.1466 35.3288 31.7516 35.3717 32.3955C35.3717 32.6111 35.4147 32.8278 35.4147 33.0863H27.8385C28.138 25.1418 28.0981 17.1922 27.8385 9.19977C27.9254 9.19977 28.0981 9.15684 28.2718 9.15684H34.5921C35.0253 9.15684 35.1112 9.28662 35.1112 9.71889C35.0683 10.4966 35.1112 11.2743 35.1112 12.2246C38.1431 8.2933 42.0395 8.2933 46.2823 9.11392Z" fill="#212121" fill-opacity="0.75"/>
<path d="M66.3703 37.7124H68.0155C68.0319 37.7294 68.0442 37.7499 68.0517 37.7724C68.0591 37.7948 68.0614 37.8187 68.0584 37.8421C68.0584 39.9156 68.1014 41.9462 68.0584 44.0197C68.0691 44.7562 67.8041 45.4701 67.3156 46.0214C66.8272 46.5726 66.1503 46.9215 65.4179 46.9996C64.4567 47.2169 63.4548 47.1721 62.5168 46.8698C61.9321 46.7087 61.4128 46.368 61.0322 45.8958C60.6516 45.4237 60.4288 44.8439 60.3954 44.2383C60.3086 42.1618 60.3525 40.0454 60.3525 37.9709C60.3525 37.8841 60.5252 37.7553 60.652 37.6714C60.6949 37.6285 60.7388 37.6714 60.7818 37.6714C62.0796 37.6285 62.0796 37.6285 62.0796 38.9243V43.4167C62.0386 45.574 63.8595 45.9634 65.1583 45.5361C65.5589 45.3685 65.8939 45.075 66.1126 44.6999C66.3312 44.3249 66.4217 43.8887 66.3703 43.4576V37.7124Z" fill="#212121" fill-opacity="0.75"/>
<path d="M113.35 50.1126C113.522 49.5506 113.649 49.1622 113.783 48.8148C113.83 48.8171 113.876 48.8018 113.913 48.7719C115.558 49.3769 116.164 48.2967 116.597 47.0867C116.617 46.8902 116.571 46.6927 116.467 46.5247C115.646 44.6688 114.778 42.768 113.913 40.9102C113.826 40.7375 113.783 40.5648 113.649 40.3052C114.212 40.3052 114.688 40.2623 115.208 40.3052C115.337 40.3052 115.507 40.5208 115.554 40.6506C116.121 41.9035 116.644 43.2003 117.203 44.4532C117.27 44.6491 117.357 44.8375 117.463 45.0152C117.679 44.3673 117.896 43.8053 118.069 43.2872C118.368 42.4236 118.675 41.5591 118.934 40.6916C119.021 40.432 119.151 40.3032 119.41 40.3032C119.844 40.3461 120.276 40.3032 120.796 40.3032C120.497 41.1238 120.233 41.8586 119.974 42.5933C119.24 44.4961 118.541 46.4398 117.722 48.3406C117.549 48.9003 117.207 49.3924 116.742 49.7485C116.277 50.1047 115.712 50.3073 115.127 50.3282C114.562 50.3282 114 50.1555 113.35 50.1126Z" fill="#212121" fill-opacity="0.75"/>
<path d="M75.5078 46.9559H73.8197V42.763C73.7767 41.8126 73.2566 41.4243 72.3042 41.7258C72.1098 41.7787 71.9212 41.8509 71.7412 41.9414C71.5538 42.013 71.3962 42.1459 71.294 42.3185C71.1918 42.491 71.1509 42.6931 71.1781 42.8918C71.2211 44.0578 71.1781 45.2249 71.1781 46.3909V46.9959H69.49V40.3921C70.5722 40.1764 70.7878 40.2673 71.0873 40.9102C71.7137 40.6158 72.3678 40.3844 73.04 40.2193C73.3116 40.1438 73.5966 40.129 73.8746 40.1762C74.1527 40.2233 74.4169 40.3312 74.6484 40.4921C74.88 40.653 75.0732 40.863 75.2143 41.1071C75.3554 41.3513 75.441 41.6235 75.4649 41.9045C75.5947 43.5457 75.5078 45.2309 75.5078 46.9559Z" fill="#212121" fill-opacity="0.75"/>
<path d="M92.7815 44.0609H88.5827C88.5454 44.2502 88.5494 44.4454 88.5945 44.6329C88.6396 44.8205 88.7247 44.9962 88.844 45.1478C88.9632 45.2995 89.1138 45.4236 89.2855 45.5117C89.4571 45.5998 89.6458 45.6498 89.8385 45.6582C90.5626 45.6866 91.2874 45.629 91.9979 45.4865V45.3567C92.0408 45.3997 92.0408 45.3997 92.0408 45.4436C92.6038 46.4808 92.5599 46.6965 91.348 46.9121C90.7225 47.0486 90.0785 47.078 89.4432 46.999C88.8658 46.9644 88.3137 46.7501 87.8644 46.3859C87.415 46.0218 87.0909 45.5261 86.9374 44.9684C86.6764 44.2587 86.6193 43.49 86.7726 42.7495C86.9259 42.009 87.2835 41.3262 87.805 40.7785C88.2067 40.4259 88.6977 40.1907 89.2243 40.0988C89.7508 40.0069 90.2925 40.0617 90.7899 40.2574C91.3029 40.4422 91.7495 40.7751 92.0733 41.2138C92.3971 41.6526 92.5835 42.1775 92.6088 42.7222C92.751 43.1534 92.8096 43.6078 92.7815 44.0609ZM91.0066 42.853C91.0066 41.9455 90.4435 41.3405 89.7088 41.4274C89.5364 41.4346 89.3676 41.4789 89.214 41.5573C89.0604 41.6357 88.9255 41.7464 88.8185 41.8818C88.7116 42.0171 88.6352 42.174 88.5945 42.3416C88.5538 42.5092 88.5497 42.6837 88.5827 42.853H91.0066Z" fill="#212121" fill-opacity="0.75"/>
<path d="M103.563 41.8607C103.174 41.7738 102.828 41.645 102.524 41.6011C102.168 41.5294 101.805 41.5002 101.442 41.5143C101.163 41.5613 100.914 41.7167 100.749 41.9465C100.576 42.246 100.922 42.4647 101.182 42.5944C101.616 42.7671 102.048 42.9398 102.48 43.1565C102.903 43.2939 103.268 43.5679 103.519 43.9354C103.769 44.303 103.89 44.7432 103.863 45.187C103.776 46.1854 103.213 46.7424 102.088 47.002C100.92 47.273 99.6915 47.0709 98.6716 46.4399C98.8443 46.0077 99.018 45.6622 99.1478 45.2729C99.5532 45.4419 99.9737 45.5722 100.404 45.6622C100.836 45.7134 101.273 45.6989 101.701 45.6193C101.809 45.5722 101.904 45.5009 101.979 45.411C102.054 45.3212 102.107 45.2151 102.135 45.1012C102.178 44.9285 101.962 44.626 101.835 44.5391C101.385 44.3115 100.922 44.1096 100.45 43.9342C99.9794 43.8155 99.573 43.5205 99.3145 43.1103C99.0559 42.7001 98.9651 42.2062 99.0609 41.7309C99.1332 41.3369 99.3263 40.9751 99.6134 40.6957C99.9005 40.4163 100.267 40.2331 100.663 40.1715C101.512 39.9975 102.391 40.0421 103.218 40.3013C103.294 40.3385 103.361 40.3929 103.413 40.4603C103.465 40.5276 103.501 40.6062 103.517 40.6897C103.577 41.077 103.592 41.4699 103.563 41.8607Z" fill="#212121" fill-opacity="0.75"/>
<path d="M111.099 38.2317V40.2623H113.09C112.96 40.6506 112.874 41.0399 112.744 41.3424C112.701 41.4722 112.484 41.5581 112.354 41.602C111.936 41.6237 111.517 41.6237 111.099 41.602V44.9713C111.099 45.6192 111.398 45.8348 112.051 45.706C112.268 45.6631 112.484 45.5763 112.787 45.4904C112.916 45.7899 113.086 46.0954 113.22 46.3979C113.263 46.4847 113.133 46.6974 113.047 46.7433C112.298 47.1219 111.441 47.2278 110.622 47.0428C110.262 46.9525 109.943 46.7396 109.722 46.4406C109.501 46.1415 109.391 45.7749 109.41 45.4035V41.6878C109.021 41.6878 108.631 41.6449 108.241 41.6449V40.392C108.588 40.392 108.977 40.3491 109.41 40.3491C109.389 39.9461 109.389 39.5422 109.41 39.1392C109.427 39.0557 109.463 38.9771 109.514 38.9098C109.566 38.8424 109.633 38.788 109.71 38.7508C110.149 38.5189 110.615 38.3444 111.099 38.2317Z" fill="#212121" fill-opacity="0.75"/>
<path d="M79.7935 40.3052C80.3126 40.3052 80.7918 40.2623 81.266 40.3052C81.3958 40.3052 81.5256 40.5208 81.6124 40.6506C82.0457 41.8606 82.478 43.0266 82.9102 44.2366C82.9532 44.3663 82.9971 44.4961 83.1269 44.7986C83.4264 44.0209 83.646 43.3301 83.9066 42.6822C84.1661 41.9914 84.3827 41.3435 84.5994 40.6516C84.6862 40.3921 84.816 40.3062 85.1185 40.3062H86.4612C86.3314 40.6057 86.2446 40.8683 86.1617 41.1268C85.422 42.9817 84.6423 44.7986 83.9495 46.6565C83.9356 46.7255 83.9065 46.7905 83.8645 46.8469C83.8224 46.9034 83.7683 46.9498 83.7062 46.9828C83.644 47.0158 83.5753 47.0347 83.505 47.038C83.4347 47.0413 83.3646 47.0289 83.2996 47.0019C82.9532 46.9589 82.5638 47.2175 82.3472 46.7024C81.5256 44.6688 80.703 42.6822 79.9233 40.6506C79.8364 40.5648 79.8364 40.435 79.7935 40.3052Z" fill="#212121" fill-opacity="0.75"/>
<path d="M97.7152 41.7757C97.4333 41.6965 97.1425 41.6529 96.8497 41.6459C96.6772 41.6446 96.5063 41.6791 96.3478 41.7471C96.1893 41.815 96.0465 41.9151 95.9286 42.041C95.8106 42.1668 95.72 42.3157 95.6624 42.4783C95.6047 42.6409 95.5814 42.8136 95.5938 42.9856V46.9599H93.9057V40.393C94.904 40.1345 95.2474 40.2642 95.503 40.9551L96.0271 40.5657C96.2867 40.3626 96.5916 40.2251 96.9157 40.165C97.2398 40.1048 97.5737 40.1238 97.8889 40.2203C98.1485 40.3072 98.2783 40.436 98.1485 40.7384C98.0187 41.0409 97.845 41.3873 97.7152 41.7757Z" fill="#212121" fill-opacity="0.75"/>
<path d="M78.7124 46.9569H77.0672V40.3042H78.7124V46.9569Z" fill="#212121" fill-opacity="0.75"/>
<path d="M105.336 40.3042H106.982V46.914H105.336V40.3042Z" fill="#212121" fill-opacity="0.75"/>
<path d="M77.8878 39.2258C77.7529 39.2362 77.6173 39.2182 77.4898 39.1728C77.3624 39.1275 77.2459 39.0558 77.1479 38.9625C77.0499 38.8692 76.9726 38.7564 76.921 38.6313C76.8695 38.5063 76.8448 38.3717 76.8485 38.2365C76.8458 38.1047 76.8698 37.9736 76.919 37.8513C76.9682 37.7289 77.0416 37.6178 77.1349 37.5245C77.2281 37.4313 77.3392 37.3579 77.4616 37.3087C77.5839 37.2594 77.715 37.2355 77.8468 37.2382C77.9837 37.2311 78.1206 37.2514 78.2495 37.2981C78.3784 37.3447 78.4967 37.4166 78.5973 37.5097C78.698 37.6027 78.779 37.7149 78.8356 37.8398C78.8923 37.9646 78.9233 38.0995 78.927 38.2365C78.913 38.503 78.7975 38.754 78.6042 38.9379C78.4109 39.1219 78.1546 39.2249 77.8878 39.2258Z" fill="#212121" fill-opacity="0.75"/>
<path d="M106.114 39.2258C105.977 39.2278 105.841 39.2024 105.714 39.151C105.588 39.0996 105.472 39.0233 105.375 38.9266C105.278 38.8299 105.202 38.7148 105.15 38.588C105.099 38.4613 105.073 38.3254 105.075 38.1886C105.089 37.9258 105.206 37.6792 105.401 37.5016C105.595 37.324 105.851 37.2294 106.114 37.2382C106.252 37.2324 106.389 37.2553 106.518 37.3053C106.646 37.3554 106.763 37.4316 106.861 37.529C106.959 37.6265 107.035 37.7431 107.085 37.8716C107.136 38.0001 107.159 38.1376 107.153 38.2754C107.153 38.4078 107.125 38.5387 107.072 38.6597C107.018 38.7808 106.94 38.8895 106.842 38.9788C106.745 39.0681 106.629 39.1362 106.504 39.1787C106.379 39.2212 106.246 39.2373 106.114 39.2258Z" fill="#212121" fill-opacity="0.75"/>
<path d="M91.0096 42.8558H88.5847C88.548 42.686 88.5493 42.5102 88.5885 42.341C88.6277 42.1718 88.7038 42.0134 88.8114 41.877C88.919 41.7407 89.0555 41.6299 89.211 41.5524C89.3664 41.475 89.5371 41.4329 89.7108 41.4292C90.4465 41.3423 91.0096 41.9912 91.0096 42.8558Z" fill="#212121" fill-opacity="0.75"/>
</g>
<defs>
<clipPath id="clip0_1_105">
<rect width="121.006" height="49.9844" fill="white" transform="translate(0.996948 0.34375)"/>
</clipPath>
</defs>
</svg>
