<svg width="31" height="28" viewBox="0 0 31 28" fill="none" xmlns="http://www.w3.org/2000/svg">
<g clip-path="url(#clip0_1_593)">
<path d="M1.7655 1.42272C1.72001 1.42775 1.67596 1.44171 1.63588 1.4638C1.5958 1.4859 1.56048 1.51569 1.53194 1.55147C1.50341 1.58725 1.48222 1.62832 1.4696 1.67231C1.45697 1.7163 1.45316 1.76235 1.45838 1.80782C1.4619 1.85275 1.47428 1.89655 1.49479 1.93668C1.51531 1.97682 1.54356 2.0125 1.57792 2.04167C1.61228 2.07084 1.65208 2.09293 1.69501 2.10666C1.73794 2.12039 1.78316 2.12549 1.82807 2.12167H5.6097L9.93045 19.32C9.94785 19.3938 9.98942 19.4596 10.0486 19.5071C10.1077 19.5545 10.181 19.5808 10.2568 19.5818H26.7706C26.8153 19.5829 26.8597 19.5749 26.9013 19.5583C26.9428 19.5418 26.9805 19.517 27.0123 19.4856C27.0768 19.4188 27.1129 19.3296 27.1129 19.2367C27.1129 19.1438 27.0768 19.0546 27.0123 18.9878C26.9805 18.9563 26.9428 18.9316 26.9013 18.915C26.8597 18.8985 26.8153 18.8905 26.7706 18.8915H10.5187L9.813 16.0996H27.4455C27.5213 16.0986 27.5946 16.0723 27.6538 16.0249C27.7129 15.9774 27.7545 15.9116 27.7719 15.8378L30.4675 5.01276C30.4805 4.96125 30.4818 4.9075 30.4715 4.85539C30.4612 4.80328 30.4394 4.75411 30.4078 4.71142C30.3769 4.66974 30.3367 4.63585 30.2905 4.61245C30.2442 4.58905 30.193 4.57679 30.1412 4.57664H6.92672L6.19986 1.68555C6.18265 1.61157 6.14116 1.54549 6.082 1.49785C6.02284 1.45021 5.94943 1.42376 5.87349 1.42272H1.7655ZM7.0952 5.26403H29.7098L27.1817 15.391H9.64163L7.0952 5.26403ZM12.9515 21.6767C12.4643 21.6595 11.983 21.7882 11.5694 22.0464C11.1559 22.3045 10.8289 22.6804 10.6304 23.1257C10.4319 23.5711 10.3711 24.0655 10.4556 24.5457C10.5401 25.0258 10.7662 25.4698 11.1048 25.8205C11.4434 26.1713 11.8791 26.4129 12.356 26.5143C12.8329 26.6157 13.3292 26.5723 13.7813 26.3897C14.2333 26.2071 14.6205 25.8935 14.8931 25.4893C15.1657 25.0851 15.3113 24.6087 15.3112 24.1211C15.3212 23.4844 15.0785 22.8697 14.6363 22.4115C14.194 21.9534 13.5882 21.6891 12.9515 21.6767ZM24.4081 21.6767C23.9208 21.6595 23.4395 21.7882 23.026 22.0464C22.6124 22.3045 22.2854 22.6804 22.0869 23.1257C21.8885 23.5711 21.8276 24.0655 21.9122 24.5457C21.9967 25.0258 22.2228 25.4698 22.5614 25.8205C22.9 26.1713 23.3357 26.4129 23.8126 26.5143C24.2895 26.6157 24.7858 26.5723 25.2378 26.3897C25.6898 26.2071 26.077 25.8935 26.3496 25.4893C26.6222 25.0851 26.7678 24.6087 26.7677 24.1211C26.7778 23.4844 26.5351 22.8697 26.0928 22.4115C25.6506 21.9534 25.0447 21.6891 24.4081 21.6767ZM12.9515 22.3747C13.2995 22.3624 13.6432 22.4544 13.9386 22.6389C14.234 22.8233 14.4675 23.0918 14.6092 23.4098C14.7509 23.7279 14.7944 24.0811 14.734 24.424C14.6736 24.7669 14.5122 25.084 14.2703 25.3346C14.0285 25.5851 13.7173 25.7577 13.3767 25.8301C13.0361 25.9026 12.6817 25.8716 12.3588 25.7412C12.0359 25.6108 11.7594 25.3869 11.5646 25.0983C11.3699 24.8096 11.2658 24.4693 11.2658 24.1211C11.2612 23.8956 11.3012 23.6714 11.3835 23.4614C11.4659 23.2514 11.5889 23.0598 11.7456 22.8975C11.9022 22.7352 12.0894 22.6054 12.2964 22.5157C12.5033 22.426 12.726 22.3781 12.9515 22.3747ZM24.4081 22.3747C24.7561 22.3624 25.0998 22.4544 25.3952 22.6389C25.6905 22.8233 25.924 23.0918 26.0658 23.4098C26.2075 23.7279 26.251 24.0811 26.1906 24.424C26.1302 24.7669 25.9687 25.084 25.7269 25.3346C25.4851 25.5851 25.1739 25.7577 24.8333 25.8301C24.4927 25.9026 24.1382 25.8716 23.8153 25.7412C23.4925 25.6108 23.2159 25.3869 23.0212 25.0983C22.8264 24.8096 22.7223 24.4693 22.7223 24.1211C22.7177 23.8953 22.7579 23.6708 22.8405 23.4605C22.923 23.2503 23.0464 23.0585 23.2035 22.8961C23.3605 22.7338 23.5482 22.6041 23.7556 22.5146C23.963 22.4252 24.186 22.3776 24.4119 22.3747H24.4081Z" fill="#4E4D4E" stroke="#4E4D4E" stroke-width="0.962735"/>
</g>
<defs>
<clipPath id="clip0_1_593">
<rect width="29.9892" height="26.1094" fill="white" transform="translate(0.974121 0.9375)"/>
</clipPath>
</defs>
</svg>
