<svg width="58" height="33" viewBox="0 0 58 33" fill="none" xmlns="http://www.w3.org/2000/svg">
<g clip-path="url(#clip0_1_64)" filter="url(#filter0_d_1_64)">
<path d="M4 11.7044C5.83804 11.4517 7.5853 10.7493 9.08673 9.65935C10.5882 8.56942 11.7974 7.12574 12.607 5.45639C13.4642 3.81854 14.0316 2.04471 14.284 0.213394H15.064C14.8012 2.16114 14.2023 4.04849 13.294 5.7914C11.9469 8.488 9.66246 10.6007 6.869 11.7334L54 11.7334V12.5184L7.022 12.5184C9.76603 13.6643 12.0069 15.7583 13.336 18.4184C14.2434 20.1634 14.8374 22.054 15.091 24.0044L14.326 24.0044C14.073 22.1741 13.5064 20.4012 12.651 18.7634C11.8408 17.0938 10.6313 15.6498 9.1296 14.5594C7.62791 13.469 5.88041 12.7659 4.042 12.5124L4 11.7044Z" fill="#212121"/>
</g>
<defs>
<filter id="filter0_d_1_64" x="0" y="0.214355" width="58" height="31.79" filterUnits="userSpaceOnUse" color-interpolation-filters="sRGB">
<feFlood flood-opacity="0" result="BackgroundImageFix"/>
<feColorMatrix in="SourceAlpha" type="matrix" values="0 0 0 0 0 0 0 0 0 0 0 0 0 0 0 0 0 0 127 0" result="hardAlpha"/>
<feOffset dy="4"/>
<feGaussianBlur stdDeviation="2"/>
<feComposite in2="hardAlpha" operator="out"/>
<feColorMatrix type="matrix" values="0 0 0 0 0 0 0 0 0 0 0 0 0 0 0 0 0 0 0.25 0"/>
<feBlend mode="normal" in2="BackgroundImageFix" result="effect1_dropShadow_1_64"/>
<feBlend mode="normal" in="SourceGraphic" in2="effect1_dropShadow_1_64" result="shape"/>
</filter>
<clipPath id="clip0_1_64">
<rect width="50" height="23.79" fill="white" transform="translate(4 0.214355)"/>
</clipPath>
</defs>
</svg>
