<svg width="50" height="51" viewBox="0 0 50 51" fill="none" xmlns="http://www.w3.org/2000/svg">
<g clip-path="url(#clip0_1_83)">
<path d="M50 25.5144C48.162 25.767 46.4147 26.4695 44.9133 27.5594C43.4118 28.6493 42.2026 30.093 41.393 31.7624C40.5358 33.4002 39.9684 35.174 39.716 37.0054H38.936C39.1988 35.0576 39.7977 33.1703 40.706 31.4274C42.0531 28.7307 44.3375 26.6181 47.131 25.4854H0V24.7004H46.978C44.234 23.5544 41.9931 21.4605 40.664 18.8004C39.7566 17.0554 39.1626 15.1647 38.909 13.2144L39.674 13.2144C39.9271 15.0446 40.4937 16.8176 41.349 18.4554C42.1592 20.125 43.3687 21.569 44.8704 22.6594C46.3721 23.7497 48.1196 24.4528 49.958 24.7064L50 25.5144Z" fill="#212121"/>
</g>
<defs>
<clipPath id="clip0_1_83">
<rect width="50" height="23.79" fill="white" transform="translate(0 13.2144)"/>
</clipPath>
</defs>
</svg>
