<svg width="26" height="20" viewBox="0 0 26 20" fill="none" xmlns="http://www.w3.org/2000/svg">
<path d="M0.796875 9.7555C4.1211 9.29616 6.62274 7.66914 8.24327 4.91878C8.98932 3.64493 9.48472 2.26014 9.70667 0.828125L10.749 0.922445C10.5201 2.46923 9.98962 3.96547 9.18292 5.33944C8.29359 6.85988 6.77473 8.66139 4.25358 9.77813H25.7969V10.7477H4.3727C6.84251 11.8635 8.3398 13.6471 9.21989 15.1515C10.0259 16.5257 10.5564 18.0219 10.786 19.5685L9.74363 19.6628C9.52054 18.2321 9.02483 16.8487 8.27921 15.5759C6.65971 12.8284 4.11596 11.2033 0.796875 10.7421L0.796875 9.7555Z" fill="#212121"/>
</svg>
