<svg width="26" height="20" viewBox="0 0 26 20" fill="none" xmlns="http://www.w3.org/2000/svg">
<g clip-path="url(#clip0_1_11)">
<path d="M25.85 10.1573C22.5258 10.6167 20.0241 12.2437 18.4036 14.9941C17.6575 16.2679 17.1621 17.6527 16.9402 19.0847L15.8979 18.9904C16.1267 17.4436 16.6573 15.9474 17.4639 14.5734C18.3533 13.053 19.8721 11.2515 22.3933 10.1347H0.850006V9.16511H22.2742C19.8044 8.0493 18.3071 6.26572 17.427 4.76131C16.621 3.38708 16.0905 1.89095 15.8609 0.34432L16.9032 0.25C17.1263 1.6807 17.622 3.06412 18.3677 4.33688C19.9872 7.08441 22.5309 8.70954 25.85 9.17076V10.1573Z" fill="#212121"/>
</g>
<defs>
<clipPath id="clip0_1_11">
<rect width="25" height="19" fill="white" transform="translate(0.850006 0.25)"/>
</clipPath>
</defs>
</svg>
