<svg width="16" height="26" viewBox="0 0 16 26" fill="none" xmlns="http://www.w3.org/2000/svg">
<g clip-path="url(#clip0_1_547)">
<path fill-rule="evenodd" clip-rule="evenodd" d="M9.77179 8.99282C9.80543 8.91115 9.85875 8.83906 9.92699 8.78297C9.99524 8.72688 10.0763 8.68854 10.1629 8.67136C10.2496 8.65418 10.3391 8.65869 10.4236 8.6845C10.5081 8.7103 10.5849 8.75659 10.6471 8.81925L14.9329 13.105C14.9828 13.1547 15.0223 13.2138 15.0493 13.2789C15.0763 13.344 15.0902 13.4138 15.0902 13.4843C15.0902 13.5547 15.0763 13.6245 15.0493 13.6896C15.0223 13.7547 14.9828 13.8138 14.9329 13.8635L10.6471 18.1493C10.5466 18.2498 10.4101 18.3064 10.2679 18.3064C10.1256 18.3064 9.98917 18.2498 9.88858 18.1493C9.78798 18.0487 9.73147 17.9122 9.73147 17.77C9.73147 17.6277 9.78798 17.4913 9.88858 17.3907L13.2604 14.02H1.69644C1.55435 14.02 1.41809 13.9635 1.31763 13.8631C1.21716 13.7626 1.16072 13.6263 1.16072 13.4843C1.16072 13.3422 1.21716 13.2059 1.31763 13.1054C1.41809 13.005 1.55435 12.9485 1.69644 12.9485H13.2604L9.88858 9.57782C9.81331 9.50288 9.76202 9.40725 9.74122 9.30308C9.72043 9.19892 9.73107 9.09093 9.77179 8.99282Z" fill="#212121"/>
</g>
<defs>
<clipPath id="clip0_1_547">
<rect width="15" height="25" fill="white" transform="translate(0.625 0.984375)"/>
</clipPath>
</defs>
</svg>
