<svg width="121" height="51" viewBox="0 0 121 51" fill="none" xmlns="http://www.w3.org/2000/svg">
<g clip-path="url(#clip0_1_156)">
<path d="M6.84509 3.52871H1.45543V0.34375H16.1991V3.52871H10.8095V17.4001H6.90702V3.52871H6.84509Z" fill="#212121" fill-opacity="0.75"/>
<path d="M34.4746 0.34375V17.4001H30.5713V10.4029H22.8274V17.401H18.925V0.34375H22.8274V7.09144H30.5094V0.34375H34.4746Z" fill="#212121" fill-opacity="0.75"/>
<path d="M39.122 0.34375H43.0245V17.4001H39.122V0.34375Z" fill="#212121" fill-opacity="0.75"/>
<path d="M58.4512 17.4001L55.168 12.6519H51.5743V17.4001H47.6718V0.343792H54.9822C56.3214 0.314662 57.6515 0.570071 58.8847 1.09314C59.9204 1.53788 60.8033 2.27598 61.4247 3.21645C62.0434 4.20653 62.3459 5.36164 62.2917 6.52792C62.3256 7.68084 62.0011 8.81589 61.3627 9.77657C60.7201 10.722 59.8159 11.4599 58.7608 11.8999L62.5394 17.3984L58.4512 17.4001ZM57.4603 4.34268C56.6856 3.79259 55.7443 3.5278 54.7964 3.59333H51.6362V9.52886H54.7964C55.7443 9.59439 56.6856 9.3296 57.4603 8.77951C57.7733 8.51133 58.0201 8.17436 58.1813 7.79495C58.3424 7.41555 58.4136 7.004 58.3892 6.5925C58.4199 6.17109 58.352 5.74833 58.1907 5.35779C58.0294 4.96724 57.7793 4.61967 57.4603 4.34268Z" fill="#212121" fill-opacity="0.75"/>
<path d="M66.0703 0.343696H73.7522C75.4433 0.319143 77.1175 0.682317 78.6465 1.40535C80.0132 2.05856 81.1558 3.10224 81.9296 4.40452C82.7447 5.76041 83.1531 7.32193 83.1063 8.90327C83.145 10.4837 82.7371 12.0429 81.9296 13.402C81.1378 14.6896 80.0002 15.7288 78.6465 16.4012C77.1276 17.1533 75.4462 17.518 73.7522 17.4628H66.0703V0.343696ZM73.5664 14.1514C75.0446 14.2158 76.4894 13.7003 77.5928 12.7146C78.0977 12.2082 78.4906 11.6013 78.7461 10.9333C79.0015 10.2653 79.1138 9.55107 79.0755 8.83692C79.1126 8.12318 78.9993 7.40962 78.7431 6.74241C78.4869 6.0752 78.0935 5.46921 77.5883 4.96365C76.4858 3.97973 75.0428 3.46488 73.5664 3.52865H69.9728V14.0894H73.5664V14.1514Z" fill="#212121" fill-opacity="0.75"/>
<path d="M27.473 37.7679C26.3815 37.4797 25.3525 36.9926 24.4376 36.3311L25.7381 33.3319C26.5381 33.8917 27.4144 34.3336 28.3401 34.644C29.2999 34.9615 30.3027 35.1301 31.3136 35.1438C32.1682 35.1881 33.0202 35.0162 33.7908 34.644C34.0372 34.5263 34.2444 34.3398 34.3872 34.107C34.5301 33.8741 34.6025 33.605 34.5959 33.3319C34.5921 33.1391 34.5457 32.9495 34.46 32.7766C34.3744 32.6038 34.2516 32.452 34.1004 32.3322C33.7363 32.0389 33.3141 31.8261 32.8618 31.7076C32.3664 31.52 31.6852 31.3953 30.8792 31.1449C29.8071 30.8998 28.7521 30.5854 27.7208 30.2036C26.9007 29.8966 26.1747 29.3813 25.6143 28.7084C25.0067 27.9239 24.6992 26.9481 24.7473 25.957C24.7274 24.9991 25.009 24.0592 25.5523 23.2701C26.17 22.4207 27.0044 21.7528 27.9685 21.3361C29.2026 20.8238 30.5343 20.5891 31.8692 20.6487C32.9333 20.6501 33.9936 20.776 35.0285 21.0238C35.993 21.2455 36.9141 21.6254 37.7543 22.1483L36.5157 25.1475C35.0899 24.3034 33.4667 23.8502 31.8099 23.8337C30.9648 23.7643 30.1193 23.9614 29.392 24.3972C29.1493 24.5513 28.9486 24.7632 28.8081 25.014C28.6676 25.2648 28.5916 25.5466 28.5869 25.834C28.594 26.1202 28.6862 26.3978 28.8516 26.6315C29.017 26.8651 29.2483 27.0443 29.5158 27.146C30.4082 27.5303 31.3445 27.803 32.3036 27.9582C33.3758 28.2018 34.4311 28.5148 35.4629 28.8951C36.2675 29.2032 36.9889 29.6952 37.5694 30.3319C38.167 31.0968 38.4742 32.0488 38.4364 33.0187C38.4563 33.9766 38.1746 34.9165 37.6313 35.7056C37.014 36.556 36.1795 37.2249 35.2152 37.6422C33.9587 38.1546 32.6063 38.3891 31.2508 38.3297C29.9713 38.3222 28.6993 38.133 27.473 37.7679Z" fill="#212121" fill-opacity="0.75"/>
<path d="M53.1199 21.7113C54.1556 22.156 55.0386 22.8941 55.6599 23.8346C56.2787 24.8247 56.5811 25.9798 56.5269 27.1461C56.5513 28.2892 56.2507 29.4158 55.6599 30.3947C55.0386 31.3352 54.1557 32.0734 53.1199 32.518C51.8867 33.0411 50.5566 33.2965 49.2174 33.2674H45.8095V37.9564H41.9071V20.962H49.2174C50.5566 20.9328 51.8867 21.1882 53.1199 21.7113ZM51.6955 29.334C52.0086 29.0658 52.2553 28.7288 52.4165 28.3494C52.5776 27.97 52.6488 27.5585 52.6245 27.147C52.6488 26.7355 52.5776 26.3239 52.4165 25.9445C52.2553 25.5651 52.0086 25.2281 51.6955 24.96C50.9208 24.4099 49.9795 24.1451 49.0316 24.2106H45.8715V30.1461H49.0316C49.9816 30.1532 50.9111 29.8699 51.6955 29.334Z" fill="#212121" fill-opacity="0.75"/>
<path d="M70.2797 34.3954H62.412L60.9248 38.0227H56.8985L64.4566 20.9619H68.2971L75.8552 38.0182H71.7661L70.2797 34.3954ZM69.0412 31.3962L66.3764 24.8352L63.7108 31.3962H69.0412Z" fill="#212121" fill-opacity="0.75"/>
<path d="M81.4935 37.2052C80.1447 36.4686 79.0124 35.3916 78.2094 34.0813C77.4017 32.6997 76.9943 31.1205 77.0328 29.5206C77.0018 27.9207 77.4087 26.3427 78.2094 24.9573C79.0126 23.6476 80.1449 22.5712 81.4935 21.8351C82.9428 21.0694 84.5621 20.6826 86.201 20.7106C87.5597 20.6879 88.9087 20.9429 90.1654 21.46C91.3293 21.9496 92.3519 22.7231 93.1398 23.7098L90.5998 26.0189C90.0851 25.3832 89.4325 24.8731 88.6913 24.5271C87.9502 24.1811 87.14 24.0084 86.3222 24.0221C85.3499 24.0124 84.3908 24.2488 83.5345 24.7095C82.7217 25.1562 82.0557 25.8289 81.6173 26.6462C81.1601 27.5122 80.9259 28.4785 80.9361 29.4578C80.9259 30.437 81.1601 31.4034 81.6173 32.2694C82.0567 33.0872 82.7239 33.7599 83.538 34.206C84.3944 34.6667 85.3534 34.9032 86.3258 34.8934C87.1413 34.8935 87.9468 34.7145 88.6855 34.369C89.4242 34.0235 90.078 33.52 90.6007 32.894L93.1407 35.2057C92.3529 36.192 91.3306 36.9652 90.1672 37.4547C88.9088 37.966 87.561 38.2208 86.2028 38.204C84.5689 38.3417 82.9308 37.9942 81.4935 37.2052Z" fill="#212121" fill-opacity="0.75"/>
<path d="M109.495 34.8324V38.0174H96.4238V20.9619H109.185V24.1469H100.264V27.8343H108.132V30.8954H100.264V34.8315L109.495 34.8324Z" fill="#212121" fill-opacity="0.75"/>
<path d="M120.088 18.7129C120.295 18.9281 120.457 19.1829 120.563 19.462C120.669 19.7411 120.719 20.0387 120.707 20.3372C120.717 20.8216 120.588 21.2987 120.336 21.712C120.028 22.1723 119.599 22.5395 119.097 22.7737C118.471 23.0413 117.795 23.1693 117.115 23.1488C116.506 23.1621 115.899 23.0776 115.318 22.8984C114.781 22.7708 114.276 22.5371 113.831 22.211L114.636 20.6495C114.967 20.9099 115.346 21.1013 115.751 21.2122C116.194 21.3399 116.653 21.403 117.114 21.3997C117.529 21.4181 117.939 21.3092 118.29 21.0874C118.428 21.0027 118.541 20.8828 118.617 20.74C118.693 20.5973 118.73 20.4369 118.724 20.2753C118.724 19.5878 118.166 19.2136 117.113 19.2136H116.124V17.9007L117.921 15.8393H114.203V14.2141H120.274V15.5261L118.292 17.7751C118.97 17.9055 119.594 18.2315 120.088 18.7129Z" fill="#212121" fill-opacity="0.75"/>
<path d="M0.277023 41.4553H2.25966V48.5781H6.59474V50.2025H0.277023V41.4553Z" fill="#212121" fill-opacity="0.75"/>
<path d="M8.08369 41.4553H10.0663V50.2025H8.08369V41.4553Z" fill="#212121" fill-opacity="0.75"/>
<path d="M14.5253 43.0797V45.3914H18.5516V47.0157H14.5253V50.2007H12.5427V41.4553H19.109V43.0797H14.5253Z" fill="#212121" fill-opacity="0.75"/>
<path d="M27.4748 48.5781V50.2025H20.7227V41.4553H27.289V43.0797H22.7053V44.9544H26.7316V46.5159H22.7053V48.5153H27.4748V48.5781Z" fill="#212121" fill-opacity="0.75"/>
<path d="M38.8115 49.7655C38.0992 49.411 37.5146 48.844 37.1385 48.143C36.7103 47.4489 36.495 46.6446 36.5192 45.8294C36.4953 45.0149 36.7106 44.2112 37.1385 43.5177C37.5488 42.8427 38.1246 42.2836 38.8115 41.8934C39.5608 41.5169 40.389 41.3241 41.2276 41.3307C41.9267 41.3227 42.6206 41.45 43.2713 41.7058C43.8714 41.9491 44.4032 42.335 44.8204 42.8303L43.519 44.0175C43.2604 43.6936 42.9296 43.4345 42.5532 43.2609C42.1767 43.0874 41.7649 43.0041 41.3506 43.0178C40.8499 43.0081 40.3564 43.138 39.9253 43.3929C39.5078 43.6267 39.1645 43.9731 38.9344 44.3927C38.6889 44.8316 38.5609 45.3265 38.5629 45.8294C38.5531 46.3333 38.6816 46.8302 38.9344 47.2662C39.1645 47.6857 39.5078 48.0321 39.9253 48.2659C40.3594 48.5134 40.8509 48.6427 41.3506 48.641C41.7693 48.6429 42.1829 48.5481 42.559 48.3639C42.9351 48.1798 43.2637 47.9113 43.519 47.5794L44.8204 48.7622C44.3893 49.2592 43.8624 49.6642 43.2713 49.9531C42.6204 50.2089 41.9261 50.3363 41.2267 50.3282C40.3884 50.3347 39.5606 50.1418 38.8115 49.7655Z" fill="#212121" fill-opacity="0.75"/>
<path d="M54.4231 41.4554V50.2025H52.4405V46.5752H48.4761V50.1397H46.4934V41.3926H48.4761V44.8288H52.4405V41.3926H54.4231V41.4554Z" fill="#212121" fill-opacity="0.75"/>
<path d="M62.5323 48.3278H58.5078L57.7646 50.2025H55.72L59.5606 41.4553H61.5432L65.4457 50.2025H63.34L62.5323 48.3278ZM61.913 46.7636L60.5523 43.4548L59.189 46.8282H61.913V46.7636Z" fill="#212121" fill-opacity="0.75"/>
<path d="M72.2031 50.2026L70.5301 47.7661H68.6722V50.2026H66.6896V41.4554H70.4682C71.148 41.4411 71.8233 41.5689 72.4508 41.8305C72.989 42.0638 73.4428 42.4562 73.7514 42.955C74.0534 43.4641 74.204 44.0487 74.1858 44.6404C74.2133 45.2423 74.0389 45.8361 73.6903 46.3275C73.3781 46.8084 72.9234 47.1796 72.3898 47.3892L74.3096 50.2026H72.2031ZM71.7077 43.4549C71.3108 43.1756 70.8291 43.043 70.3452 43.0798H68.7342V46.1444H70.3443C70.8283 46.1811 71.3099 46.0485 71.7068 45.7693C71.8716 45.6326 72.0022 45.4594 72.0883 45.2635C72.1745 45.0675 72.2138 44.8542 72.2031 44.6404C72.1818 44.1994 72.0065 43.7799 71.7077 43.4549Z" fill="#212121" fill-opacity="0.75"/>
<path d="M76.1029 41.4553H78.0855V50.2025H76.1029V41.4553Z" fill="#212121" fill-opacity="0.75"/>
<path d="M82.2986 43.0797H79.5108V41.4553H87.0689V43.0797H84.2812V50.2025H82.2986V43.0797Z" fill="#212121" fill-opacity="0.75"/>
<path d="M92.5205 47.0785V50.2025H90.5379V47.0785L87.1928 41.4553H89.2993L91.5915 45.3286L93.8829 41.4553H95.8629L92.5205 47.0785Z" fill="#212121" fill-opacity="0.75"/>
</g>
<defs>
<clipPath id="clip0_1_156">
<rect width="120.43" height="49.9844" fill="white" transform="translate(0.277023 0.34375)"/>
</clipPath>
</defs>
</svg>
