<svg width="217" height="46" viewBox="0 0 217 46" fill="none" xmlns="http://www.w3.org/2000/svg">
<g clip-path="url(#clip0_1_181)">
<path d="M0.0532606 0.859375H33.307C33.335 0.969089 33.355 1.08066 33.367 1.19324C33.367 9.57591 33.506 17.9596 33.307 26.3422C33.1071 34.8239 28.9088 40.8705 21.0619 44.3451C19.7934 44.9149 18.4469 45.2877 17.1185 45.7395C16.903 45.8202 16.6681 45.8338 16.4447 45.7785C12.5571 44.8215 8.96871 42.9122 6.00289 40.2227C2.97373 37.3742 1.00327 33.5803 0.415117 29.464C0.183804 27.9423 0.0711758 26.405 0.0782507 24.8658C0.0382666 17.0959 0.0532606 9.30102 0.0532606 1.52711V0.859375ZM1.32675 2.11588V24.0072C1.32675 25.2247 1.34675 26.4412 1.44571 27.6387C1.7155 31.6493 3.32785 35.4521 6.02289 38.4344C8.40313 40.8831 11.3201 42.7447 14.5435 43.8723C15.2297 44.1637 15.9676 44.3139 16.7131 44.3139C17.4587 44.3139 18.1966 44.1637 18.8828 43.8723C22.6005 42.6026 25.8884 40.3172 28.374 37.2749C30.9322 33.8106 32.2451 29.5837 32.0995 25.2797C32.1195 17.7607 32.0995 10.2406 32.0995 2.72163V2.09588C21.8146 2.11588 11.6107 2.11588 1.32675 2.11588Z" fill="#212121" fill-opacity="0.75"/>
<path d="M189.57 29.5621C189.502 29.6001 189.428 29.6267 189.352 29.641C187.984 29.741 187.984 29.741 187.866 28.4235C187.747 26.8721 187.628 25.3248 187.489 23.6334C187.404 23.7709 187.331 23.9154 187.271 24.0653C186.657 25.7736 186.042 27.4639 185.471 29.1692C185.333 29.5811 185.135 29.778 184.699 29.699C184.528 29.6794 184.355 29.6794 184.184 29.699C183.827 29.738 183.669 29.5991 183.569 29.2672C182.991 27.5789 182.378 25.8905 181.783 24.2222C181.729 24.0514 181.624 23.9009 181.483 23.7904C181.324 25.7336 181.183 27.6778 181.027 29.641H179.564C179.782 26.8921 180 24.1822 180.218 21.4343H182.437C183.13 23.4565 183.843 25.4987 184.597 27.6778C185.37 25.4977 186.083 23.4565 186.796 21.4143H188.96C189.134 24.1432 189.352 26.8521 189.57 29.5621Z" fill="#212121" fill-opacity="0.75"/>
<path d="M98.0232 13.1105H96.5768V4.85973C97.0526 4.85973 97.5084 4.83974 97.9643 4.87973C98.1379 4.93879 98.2842 5.05884 98.3761 5.21759C99.4297 6.72999 100.46 8.24139 101.491 9.7338C101.591 9.89073 101.709 10.0287 101.927 10.3426V4.88472H103.393C103.413 5.10064 103.433 5.31655 103.433 5.55246V12.4037C103.433 12.6396 103.374 12.9925 103.233 13.0905C102.994 13.1748 102.737 13.1919 102.489 13.1401C102.242 13.0883 102.013 12.9695 101.828 12.7966C100.896 11.4221 99.9455 10.0677 99.0138 8.69821C98.7483 8.27265 98.4287 7.88323 98.0632 7.53967C98.0232 9.37994 98.0232 11.2252 98.0232 13.1105Z" fill="#212121" fill-opacity="0.75"/>
<path d="M193.968 29.6411V21.3174C195.276 21.3764 196.567 21.3764 197.832 21.5333C198.203 21.5739 198.552 21.7304 198.83 21.9805C199.107 22.2305 199.299 22.5616 199.378 22.9267C199.511 23.3549 199.497 23.8151 199.339 24.2347C199.182 24.6543 198.888 25.0094 198.506 25.2438C198.84 25.3746 199.135 25.5899 199.36 25.8687C199.586 26.1475 199.735 26.4802 199.794 26.8342C199.851 27.1493 199.843 27.4729 199.768 27.7844C199.694 28.0959 199.555 28.3885 199.361 28.6434C199.167 28.8983 198.922 29.11 198.642 29.2649C198.361 29.4198 198.052 29.5146 197.733 29.5431C197.373 29.6056 197.008 29.639 196.643 29.6431C195.791 29.6611 194.919 29.6411 193.968 29.6411ZM195.514 28.3266C196.136 28.3139 196.758 28.2682 197.376 28.1896C197.502 28.1868 197.627 28.1584 197.742 28.106C197.857 28.0537 197.96 27.9785 198.046 27.885C198.131 27.7916 198.196 27.6818 198.238 27.5623C198.279 27.4429 198.296 27.3162 198.287 27.19C198.304 27.0593 198.295 26.9266 198.26 26.7995C198.225 26.6724 198.165 26.5534 198.084 26.4494C198.003 26.3455 197.903 26.2586 197.788 26.1937C197.673 26.1288 197.547 26.0873 197.416 26.0715C196.801 25.9715 196.167 25.9925 195.517 25.9535L195.514 28.3266ZM195.534 22.7708V24.716C196.088 24.677 196.603 24.696 197.099 24.6161C197.22 24.6105 197.338 24.5801 197.446 24.5268C197.554 24.4735 197.651 24.3985 197.729 24.3064C197.807 24.2143 197.865 24.1071 197.9 23.9915C197.935 23.8759 197.946 23.7544 197.932 23.6345C197.912 23.0457 197.516 22.8488 197.02 22.7898C196.525 22.7534 196.029 22.7467 195.534 22.7698V22.7708Z" fill="#212121" fill-opacity="0.75"/>
<path d="M75.0584 29.6402V21.4145C76.2279 21.4145 77.3575 21.3555 78.506 21.4345C78.9473 21.4272 79.3786 21.5655 79.7333 21.8281C80.0881 22.0906 80.3463 22.4628 80.4683 22.8869C80.6169 23.3199 80.6113 23.791 80.4525 24.2203C80.2936 24.6497 79.9913 25.011 79.5966 25.2429C80.0058 25.3855 80.3571 25.6581 80.5968 26.0191C80.8365 26.3801 80.9515 26.8097 80.9241 27.2422C80.9339 27.798 80.7363 28.3376 80.3698 28.7556C80.0033 29.1737 79.4942 29.4402 78.9419 29.5033C78.5627 29.5779 78.1784 29.6237 77.7923 29.6402C76.8817 29.6602 75.99 29.6402 75.0584 29.6402ZM76.5838 28.3257C77.2775 28.2667 77.9113 28.2667 78.545 28.1688C78.7799 28.1441 78.9967 28.031 79.1513 27.8524C79.3059 27.6739 79.3869 27.4432 79.3777 27.2072C79.42 26.9542 79.3603 26.6948 79.2117 26.4857C79.0632 26.2766 78.8378 26.1349 78.585 26.0916C77.9223 25.9996 77.2547 25.9472 76.5858 25.9347L76.5838 28.3257ZM76.6038 22.7699V24.7132C77.1586 24.6742 77.6544 24.6742 78.1492 24.6132C78.3922 24.601 78.6205 24.493 78.7839 24.3127C78.9473 24.1324 79.0325 23.8946 79.0208 23.6516C79.0229 23.5354 79.0011 23.4201 78.9566 23.3128C78.9121 23.2054 78.8459 23.1084 78.7622 23.0279C78.6785 22.9473 78.5791 22.8848 78.4702 22.8444C78.3613 22.804 78.2452 22.7864 78.1292 22.7929C77.6216 22.7554 77.1123 22.7484 76.6038 22.7699Z" fill="#212121" fill-opacity="0.75"/>
<path d="M57.3395 25.8514C57.3415 26.575 57.14 27.2845 56.758 27.8991C56.3761 28.5136 55.829 29.0084 55.1794 29.327C54.5344 29.6797 53.8022 29.8412 53.0687 29.7925C52.3351 29.7438 51.6307 29.487 51.038 29.0521C50.1857 28.3796 49.5988 27.4272 49.3813 26.3636C49.1637 25.2999 49.3296 24.1935 49.8495 23.2404C50.3142 22.4041 51.0647 21.7631 51.9636 21.4351C52.8624 21.107 53.8493 21.1138 54.7435 21.4541C56.3879 22.0629 57.3395 23.5743 57.3395 25.8514ZM53.3411 22.6117C52.9598 22.5993 52.5824 22.6916 52.2499 22.8786C51.9173 23.0655 51.6424 23.34 51.4549 23.6723C51.1243 24.2202 50.9496 24.8481 50.9496 25.488C50.9496 26.128 51.1243 26.7558 51.4549 27.3038C51.6404 27.6569 51.9245 27.9485 52.2727 28.1432C52.6209 28.3378 53.0181 28.4272 53.4161 28.4004C53.8154 28.3986 54.2057 28.2811 54.5398 28.0622C54.8738 27.8433 55.1373 27.5323 55.2983 27.1669C55.5738 26.6334 55.7109 26.0392 55.6971 25.439C55.6833 24.8387 55.519 24.2515 55.2194 23.7312C55.0389 23.3896 54.7677 23.1045 54.4356 22.9071C54.1035 22.7097 53.7234 22.6079 53.3371 22.6127L53.3411 22.6117Z" fill="#212121" fill-opacity="0.75"/>
<path d="M157.393 25.4596C157.433 26.0207 157.356 26.5842 157.165 27.1136C156.975 27.643 156.676 28.1267 156.287 28.5336C155.899 28.9404 155.429 29.2614 154.909 29.4759C154.389 29.6904 153.83 29.7936 153.267 29.7789C152.321 29.7587 151.414 29.3982 150.713 28.7635C150.011 28.1288 149.562 27.2624 149.447 26.3232C149.216 25.3068 149.367 24.241 149.871 23.3288C150.375 22.4165 151.197 21.7215 152.181 21.3762C152.802 21.1861 153.461 21.1489 154.1 21.2678C154.739 21.3867 155.34 21.6581 155.851 22.059C156.363 22.4598 156.77 22.9784 157.039 23.5704C157.307 24.1625 157.429 24.8105 157.393 25.4596ZM155.827 25.6165C155.735 25.1194 155.614 24.6278 155.466 24.1441C155.321 23.69 155.032 23.2954 154.643 23.0193C154.255 22.7432 153.787 22.6005 153.31 22.6127C152.824 22.6271 152.356 22.7998 151.977 23.1045C151.598 23.4092 151.329 23.8294 151.211 24.301C150.908 25.1818 150.957 26.1458 151.349 26.991C151.498 27.3816 151.756 27.7209 152.093 27.9681C152.43 28.2153 152.831 28.3599 153.248 28.3844C153.646 28.4385 154.051 28.3673 154.407 28.1809C154.762 27.9944 155.051 27.7018 155.233 27.3438C155.481 26.7864 155.68 26.2085 155.827 25.6165Z" fill="#212121" fill-opacity="0.75"/>
<path d="M126.081 29.621H124.496V21.4143H126.061V24.5551H129.648V21.4143H131.253V29.6011H129.688V26.1024H126.081V29.621Z" fill="#212121" fill-opacity="0.75"/>
<path d="M91.267 29.3462C90.8108 29.4721 90.3475 29.5705 89.8795 29.6411C89.7758 29.6366 89.6743 29.6097 89.582 29.5623C89.4897 29.5148 89.4088 29.448 89.3448 29.3662C88.731 28.5805 88.1366 27.7755 87.5615 26.9512C87.4705 26.7584 87.3073 26.6091 87.1072 26.5355C86.9071 26.462 86.686 26.4702 86.4919 26.5583V29.6211H84.9065V21.3364C86.194 21.4154 87.5225 21.3954 88.79 21.5913C89.2973 21.6681 89.7602 21.9243 90.0948 22.3133C90.4293 22.7023 90.6133 23.1984 90.6133 23.7115C90.6857 24.2017 90.5998 24.7022 90.3681 25.1402C90.1363 25.5781 89.7708 25.9307 89.3248 26.1465C89.2458 26.1855 89.1658 26.2465 89.0079 26.3234L91.267 29.3462ZM86.5119 22.7299V25.2239C87.0667 25.1849 87.5815 25.2039 88.0573 25.1239C88.3367 25.0785 88.5892 24.9303 88.765 24.7084C88.9409 24.4865 89.0275 24.2069 89.0079 23.9244C89.0098 23.6591 88.9139 23.4024 88.7386 23.2032C88.5632 23.0041 88.3207 22.8765 88.0573 22.8448C87.5615 22.7699 87.0467 22.7699 86.5119 22.7299Z" fill="#212121" fill-opacity="0.75"/>
<path d="M64.4936 13.1483V9.61474H60.966V13.1134H59.3416V4.92261H60.907V8.06336H64.4736V4.92261H66.0789C66.0989 5.13852 66.1189 5.35444 66.1189 5.59034C66.1189 7.86744 66.0989 10.1645 66.1389 12.4416C66.1389 13.0114 66.02 13.2663 65.4062 13.1683C65.1034 13.1312 64.7977 13.1245 64.4936 13.1483Z" fill="#212121" fill-opacity="0.75"/>
<path d="M137.533 9.8508C138.246 10.8124 138.979 11.794 139.752 12.8496C139.217 12.9676 138.781 13.1045 138.325 13.1635C138.219 13.1509 138.117 13.1165 138.025 13.0625C137.933 13.0084 137.853 12.936 137.791 12.8496C137.156 12.0299 136.542 11.1813 135.947 10.3416C135.879 10.1997 135.758 10.0897 135.61 10.0348C135.462 9.9798 135.299 9.98408 135.155 10.0467C135.016 10.1057 134.937 10.4396 134.937 10.6555C134.917 11.4602 134.917 12.2648 134.917 13.1295H133.371V4.90376C134.798 4.98373 136.224 4.66786 137.612 5.21764C138.025 5.36073 138.385 5.62454 138.647 5.97493C138.908 6.32531 139.058 6.74612 139.078 7.18286C139.155 7.65457 139.086 8.13857 138.881 8.57015C138.675 9.00172 138.343 9.36029 137.928 9.5979C137.814 9.67205 137.695 9.73882 137.572 9.79782C137.592 9.75284 137.592 9.77183 137.533 9.8508ZM134.977 8.71225C135.828 8.65327 136.72 8.92816 137.315 8.10349C137.455 7.91613 137.532 7.68811 137.532 7.45375C137.532 7.21939 137.455 6.99137 137.315 6.80401C136.7 6.05831 135.828 6.27422 134.997 6.25423C134.977 7.10189 134.977 7.84859 134.977 8.71225Z" fill="#212121" fill-opacity="0.75"/>
<path d="M216.931 29.4251C216.376 29.5431 215.9 29.661 215.366 29.779C215.148 29.1702 214.91 28.6015 214.712 27.9927C214.691 27.86 214.62 27.7405 214.512 27.6598C214.405 27.5792 214.27 27.5436 214.137 27.5609C213.245 27.5802 212.354 27.5802 211.462 27.5609C211.162 27.5609 210.986 27.6608 210.927 27.9537C210.887 28.1107 210.808 28.2676 210.749 28.4445C210.25 29.76 210.25 29.76 208.75 29.5831C208.869 29.2692 208.968 28.9743 209.087 28.6834C209.999 26.3843 210.91 24.0853 211.786 21.7732C211.822 21.6073 211.918 21.4607 212.056 21.3618C212.193 21.263 212.363 21.2189 212.532 21.2384C213.721 21.2584 213.721 21.2384 214.157 22.318C215.029 24.4971 215.9 26.6572 216.756 28.8364C216.812 29.0133 216.851 29.1892 216.931 29.4251ZM212.81 22.9657C212.374 24.1242 211.997 25.1058 211.62 26.1264H213.998C213.602 25.0869 213.225 24.1052 212.81 22.9657Z" fill="#212121" fill-opacity="0.75"/>
<path d="M90.5324 4.88354H92.1177C92.1409 5.03312 92.1542 5.18405 92.1577 5.33537C92.1577 6.90574 92.1777 8.49611 92.1377 10.0665C92.1737 10.6595 92.031 11.2497 91.7281 11.7607C91.4252 12.2718 90.9759 12.6803 90.4384 12.9333C89.8243 13.2332 89.1426 13.3676 88.4606 13.3233C87.7786 13.2789 87.12 13.0574 86.5499 12.6804C86.1949 12.4585 85.9005 12.1519 85.693 11.7881C85.4856 11.4244 85.3717 11.0149 85.3614 10.5963C85.3014 8.71202 85.3414 6.82677 85.3414 4.92253H86.9068V5.96312C86.9068 7.35656 86.8868 8.771 86.9468 10.1614C86.9352 10.3899 86.9708 10.6183 87.0515 10.8324C87.1321 11.0464 87.2561 11.2415 87.4156 11.4055C87.5751 11.5695 87.7666 11.6988 87.9784 11.7854C88.1901 11.872 88.4174 11.914 88.6461 11.9088C88.8742 11.937 89.1057 11.9166 89.3254 11.8489C89.5451 11.7812 89.7479 11.6677 89.9205 11.5159C90.0931 11.3642 90.2317 11.1776 90.327 10.9684C90.4223 10.7592 90.4722 10.5322 90.4734 10.3024C90.5524 9.2818 90.5324 8.2602 90.5324 7.23961C90.5524 6.47391 90.5324 5.70822 90.5324 4.88354Z" fill="#212121" fill-opacity="0.75"/>
<path d="M168.783 21.3953H170.31C170.33 21.6112 170.35 21.8071 170.35 22.023C170.35 23.4754 170.33 24.9479 170.35 26.4013C170.307 26.7022 170.342 27.0091 170.452 27.2924C170.563 27.5757 170.744 27.826 170.978 28.0192C171.213 28.2124 171.493 28.342 171.792 28.3957C172.092 28.4493 172.4 28.4252 172.687 28.3255C173.051 28.2511 173.377 28.0471 173.603 27.7512C173.829 27.4553 173.94 27.0876 173.915 26.7161C173.955 25.2237 173.935 23.7173 173.955 22.2179V21.4342H175.58V26.3423C175.58 29.1302 173.518 30.0728 171.359 29.7409C170.671 29.6949 170.025 29.3932 169.549 28.895C169.072 28.3968 168.799 27.7383 168.783 27.049C168.704 25.1848 168.783 23.3195 168.783 21.3953Z" fill="#212121" fill-opacity="0.75"/>
<path d="M72.4235 11.6769H76.0691V13.1103H70.8181V4.90356H75.9701V6.27802H72.4235V8.10229H75.2564C75.3353 8.5931 75.4343 9.02493 75.5143 9.55471H72.4035C72.4235 10.3014 72.4235 10.9502 72.4235 11.6769Z" fill="#212121" fill-opacity="0.75"/>
<path d="M125.566 9.55671V11.6769H129.212V13.1103H123.981V4.90356H129.133V6.29701H126.299C125.526 6.29701 125.526 6.29701 125.526 7.0827V8.10229H128.419C128.498 8.5931 128.578 9.04492 128.657 9.55471L125.566 9.55671Z" fill="#212121" fill-opacity="0.75"/>
<path d="M120.278 23.2007C119.743 22.9949 119.193 22.8309 118.633 22.7098C118.181 22.6504 117.721 22.6907 117.286 22.8278C117.153 22.8878 117.037 22.9805 116.95 23.0972C116.862 23.214 116.806 23.3511 116.786 23.4955C116.809 23.6386 116.861 23.7753 116.939 23.897C117.018 24.0187 117.121 24.1227 117.242 24.2023C117.633 24.4126 118.045 24.5837 118.47 24.7131C118.886 24.89 119.303 25.0269 119.699 25.2428C120.085 25.4064 120.412 25.684 120.635 26.0384C120.859 26.3929 120.969 26.8072 120.951 27.2261C120.963 27.6733 120.84 28.1138 120.6 28.4914C120.36 28.8689 120.014 29.1665 119.604 29.3462C118.59 29.8121 117.438 29.8834 116.374 29.5461C114.65 29.0923 114.947 29.3262 115.225 27.7169C115.734 27.9224 116.257 28.0931 116.79 28.2277C117.392 28.3251 118.003 28.3446 118.61 28.2856C118.82 28.2625 119.016 28.1674 119.164 28.0164C119.311 27.8655 119.402 27.668 119.421 27.4576C119.44 27.2471 119.385 27.0367 119.266 26.862C119.147 26.6873 118.972 26.5592 118.769 26.4993C118.154 26.2244 117.501 26.0285 116.887 25.7536C115.601 25.2039 115.106 24.4382 115.265 23.2796C115.368 22.7242 115.662 22.2222 116.096 21.8601C116.53 21.498 117.077 21.2983 117.642 21.2954C118.468 21.3326 119.29 21.4379 120.099 21.6103C120.435 21.6493 120.534 21.8652 120.455 22.1991C120.377 22.5139 120.337 22.8478 120.278 23.2007Z" fill="#212121" fill-opacity="0.75"/>
<path d="M143.039 11.2434C143.872 11.4593 144.625 11.7142 145.397 11.8522C145.835 11.9027 146.278 11.8419 146.685 11.6752C146.828 11.5992 146.952 11.4901 147.045 11.357C147.138 11.2238 147.198 11.0705 147.22 10.9095C147.201 10.7469 147.149 10.5898 147.067 10.448C146.985 10.3061 146.875 10.1826 146.744 10.0849C146.395 9.87799 146.022 9.71324 145.634 9.59405C145.159 9.39413 144.664 9.20121 144.208 8.9663C143.876 8.78822 143.597 8.52546 143.399 8.20468C143.201 7.8839 143.091 7.51651 143.081 7.13976C143.071 6.76301 143.161 6.39031 143.342 6.05944C143.522 5.72857 143.787 5.45131 144.109 5.25577C144.728 4.93216 145.415 4.75834 146.113 4.74827C146.812 4.7382 147.503 4.89217 148.131 5.1978C148.187 5.23721 148.231 5.29081 148.259 5.35304C148.287 5.41527 148.298 5.48385 148.29 5.55166C148.25 5.92451 148.19 6.31735 148.112 6.7102C147.608 6.49967 147.084 6.34189 146.547 6.23938C146.035 6.16537 145.512 6.21192 145.021 6.37533C144.883 6.41786 144.762 6.50183 144.674 6.61578C144.586 6.72972 144.535 6.86809 144.528 7.01199C144.522 7.15588 144.56 7.2983 144.637 7.41979C144.714 7.54128 144.827 7.63593 144.961 7.69081C145.268 7.85459 145.586 7.99882 145.911 8.12263C146.311 8.27957 146.724 8.39753 147.1 8.57446C148.407 9.16322 148.863 9.88993 148.705 11.1264C148.61 11.6543 148.349 12.1383 147.961 12.5087C147.573 12.8791 147.078 13.1168 146.546 13.1876C145.261 13.3711 143.95 13.166 142.781 12.5989C142.9 12.128 142.959 11.6762 143.039 11.2434Z" fill="#212121" fill-opacity="0.75"/>
<path d="M112.86 5.06284C113.455 4.94489 113.95 4.82694 114.505 4.70898C115.277 6.80815 116.05 8.87133 116.859 11.0505C116.978 10.7956 117.059 10.6576 117.117 10.5007C117.758 8.80735 118.388 7.12402 118.983 5.4157C118.999 5.31842 119.035 5.2255 119.089 5.14258C119.142 5.05966 119.212 4.98849 119.294 4.93341C119.376 4.87833 119.468 4.84048 119.565 4.82217C119.662 4.80387 119.761 4.80549 119.858 4.82694C120.194 4.84668 120.532 4.84668 120.868 4.82694C120.491 5.76956 120.154 6.65321 119.799 7.55585C119.105 9.32315 118.392 11.0894 117.718 12.8537C117.706 12.9197 117.679 12.9822 117.639 13.0369C117.6 13.0916 117.55 13.1373 117.492 13.1708C117.433 13.2044 117.369 13.225 117.302 13.2313C117.235 13.2377 117.167 13.2296 117.104 13.2076C116.727 13.1076 116.212 13.4825 115.974 12.9127C114.922 10.3627 113.911 7.75177 112.86 5.06284Z" fill="#212121" fill-opacity="0.75"/>
<path d="M146.157 27.6766C146.171 27.7821 146.191 27.8869 146.216 27.9904C146.394 29.168 146.394 29.19 145.246 29.5418C141.937 30.5624 139.242 28.0504 139.876 24.5748C140.49 21.1791 143.64 20.7073 145.721 21.552C146.137 21.7089 146.316 21.9249 146.177 22.3767C146.098 22.6716 146.058 22.9654 146.018 23.1424C145.289 22.903 144.54 22.7254 143.781 22.6116C143.35 22.5719 142.919 22.6786 142.556 22.9143C142.193 23.1501 141.921 23.5013 141.782 23.9111C141.565 24.3934 141.45 24.9148 141.442 25.4434C141.435 25.972 141.535 26.4966 141.738 26.9848C141.857 27.2788 142.033 27.5458 142.258 27.7697C142.482 27.9936 142.75 28.1697 143.044 28.2876C143.339 28.4054 143.654 28.4625 143.971 28.4554C144.288 28.4483 144.6 28.3772 144.889 28.2463C145.322 28.0819 145.746 27.8916 146.157 27.6766Z" fill="#212121" fill-opacity="0.75"/>
<path d="M61.131 21.3953H66.1639V22.7887H62.7363V24.7519C63.45 24.7519 64.1428 24.7909 64.8355 24.7319C65.3353 24.693 65.5492 24.8499 65.5492 25.3407C65.5676 25.6106 65.601 25.8792 65.6492 26.1454H62.7163V29.601H61.131V21.3953Z" fill="#212121" fill-opacity="0.75"/>
<path d="M165.889 5.08479C166.338 4.95546 166.795 4.85529 167.257 4.78491C167.361 4.79545 167.461 4.8314 167.548 4.88961C167.635 4.94781 167.707 5.0265 167.757 5.11878C168.405 6.18436 169.02 7.28392 169.694 8.45745C170.011 7.92766 170.289 7.45785 170.565 6.98504C170.743 6.67116 170.942 6.35729 171.12 6.04241C171.893 4.72694 171.893 4.72694 173.557 4.94285C173.22 5.51262 172.884 6.04241 172.567 6.5722C172.448 6.74913 172.367 6.94505 172.23 7.12198C171.553 7.89375 171.048 8.80148 170.751 9.78422C170.454 10.767 170.37 11.802 170.506 12.8197C170.507 12.9389 170.494 13.0578 170.466 13.1736C170.03 13.1736 169.614 13.1936 169.197 13.1536C169.078 13.1536 168.939 12.9767 168.897 12.8397C168.851 12.6733 168.844 12.4984 168.877 12.3289C168.982 11.5494 168.925 10.7566 168.71 9.99994C168.496 9.24328 168.127 8.53891 167.629 7.93066C166.999 7.04401 166.503 6.0844 165.889 5.08479Z" fill="#212121" fill-opacity="0.75"/>
<path d="M106.288 21.4351C106.347 21.8869 106.427 22.3347 106.506 22.8485H103.851V29.6018H102.206V22.8485H99.6696V21.4351H106.288Z" fill="#212121" fill-opacity="0.75"/>
<path d="M53.519 6.27916V13.0915H51.9137V6.29415H49.3777V4.86572H50.1104C51.8547 4.86572 53.598 4.88571 55.3423 4.86572C55.8181 4.86572 56.135 4.9247 56.095 5.49347C56.1047 5.76411 56.1382 6.03337 56.195 6.29815C55.2823 6.27916 54.4507 6.27916 53.519 6.27916Z" fill="#212121" fill-opacity="0.75"/>
<path d="M160.203 6.29701H157.667V4.90356H164.245C164.304 5.3154 164.384 5.74823 164.463 6.25803H161.788V13.0903H160.183C160.203 10.8522 160.203 8.61409 160.203 6.29701Z" fill="#212121" fill-opacity="0.75"/>
<path d="M162.536 28.2084H165.606C165.685 28.6792 165.765 29.108 165.844 29.6018H160.93V21.4351H162.516C162.536 23.6732 162.536 25.8913 162.536 28.2084Z" fill="#212121" fill-opacity="0.75"/>
<path d="M96.416 29.621H94.8706V21.4143H96.416V29.621Z" fill="#212121" fill-opacity="0.75"/>
<path d="M109.595 13.1103H108.049V4.90356H109.595V13.1103Z" fill="#212121" fill-opacity="0.75"/>
<path d="M154.436 13.1283H152.891V4.92261H154.436V13.1283Z" fill="#212121" fill-opacity="0.75"/>
<path d="M111.102 21.4143V29.6011H109.537V21.4143H111.102Z" fill="#212121" fill-opacity="0.75"/>
<path d="M203.972 21.4143H205.538V29.6011H203.972V21.4143Z" fill="#212121" fill-opacity="0.75"/>
<path d="M5.46604 25.4997C7.42726 27.3649 9.40947 29.2302 11.3707 31.0974C11.4153 31.0728 11.4617 31.0518 11.5096 31.0345C10.7369 27.7358 9.98425 24.4371 9.21055 21.1384C9.25054 21.1184 9.31051 21.0994 9.3495 21.0794C11.1728 24.1032 13.015 27.126 14.9373 30.3067C15.532 26.1084 16.0868 22.061 16.6616 18.0366H16.7805C17.3353 22.061 17.9101 26.0864 18.4649 30.1108L18.5838 30.1698C20.4464 27.0877 22.3157 23.9989 24.1916 20.9035C24.2116 20.9235 24.2506 20.9235 24.2706 20.9425C23.4969 24.3021 22.7052 27.6598 21.9325 31.0165C21.9725 31.0365 22.0115 31.0754 22.0514 31.0944C24.0127 29.2492 25.9749 27.3839 27.9361 25.5386L28.0551 25.5976C27.0445 28.0516 26.0139 30.5057 25.0033 32.9397L25.0822 33.0187C26.7066 31.8191 28.3519 30.6036 30.0553 29.3471C28.4699 34.2552 26.0329 38.3975 21.2178 40.6946C19.8903 41.3224 18.5189 41.8532 17.1554 42.4219C16.9488 42.5084 16.7204 42.529 16.5017 42.4809C13.7914 41.6558 11.2536 40.3454 9.01163 38.6134C6.81924 36.6774 5.15015 34.22 4.15856 31.4683C3.88199 30.8225 3.66322 30.1535 3.50482 29.4691C5.12918 30.6686 6.73454 31.8451 8.35989 33.0427C8.39988 33.0227 8.41887 33.0037 8.45985 32.9837C7.42826 30.5067 6.41766 28.0356 5.38707 25.5786C5.40407 25.5366 5.44705 25.5196 5.46604 25.4997Z" fill="#212121" fill-opacity="0.75"/>
<path d="M30.1953 17.4299C29.6182 17.341 29.0497 17.2033 28.4959 17.018C27.6222 16.6423 26.6806 16.4502 25.7295 16.4536C24.7784 16.4571 23.8381 16.656 22.9671 17.038C22.4188 17.2712 21.8291 17.3914 21.2333 17.3914C20.6375 17.3914 20.0478 17.2712 19.4995 17.038C18.6297 16.6496 17.6877 16.4489 16.7351 16.4489C15.7825 16.4489 14.8406 16.6496 13.9707 17.038C13.4238 17.2744 12.8348 17.398 12.2389 17.4015C11.6431 17.4049 11.0527 17.2881 10.5031 17.058C9.62285 16.6696 8.67131 16.4691 7.7092 16.4691C6.7471 16.4691 5.79555 16.6696 4.91532 17.058C4.37163 17.2366 3.8134 17.3674 3.24698 17.4489L3.24698 15.2897C4.60912 14.911 5.99183 14.6106 7.38833 14.3901C8.29146 14.3231 9.19826 14.4558 10.0443 14.7789C11.4244 15.3282 12.9625 15.3282 14.3426 14.7789C15.8654 14.1508 17.5749 14.1508 19.0977 14.7789C19.769 15.0608 20.4898 15.2059 21.2178 15.2059C21.9459 15.2059 22.6667 15.0608 23.338 14.7789C24.8835 14.1605 26.6076 14.1605 28.1531 14.7789C28.8068 15.0148 29.4805 15.1518 30.1743 15.3487C30.1953 15.9575 30.1953 16.6072 30.1953 17.4299Z" fill="#212121" fill-opacity="0.75"/>
<path d="M13.7118 13.1493V3.76504C15.3339 3.65585 16.9631 3.73502 18.5669 4.00094C18.8841 4.04998 19.1867 4.16841 19.4529 4.34779C19.7191 4.52716 19.9425 4.76307 20.1071 5.03868C20.2717 5.3143 20.3734 5.62283 20.4051 5.94229C20.4367 6.26174 20.3975 6.58424 20.2902 6.8868C20.0342 7.36763 19.7214 7.81599 19.3586 8.22226C19.4089 8.25963 19.462 8.29305 19.5175 8.32222C19.9273 8.49581 20.2723 8.79355 20.504 9.17353C20.7357 9.55352 20.8424 9.99659 20.809 10.4404C20.8351 10.8984 20.7169 11.3531 20.4711 11.7404C20.2252 12.1277 19.8641 12.4282 19.4385 12.5995C18.8504 12.8457 18.2294 13.0043 17.5953 13.0703C16.5057 13.1703 15.3962 13.1293 14.2866 13.1703C14.0956 13.1516 13.9037 13.1446 13.7118 13.1493ZM15.872 11.6179C16.5657 11.5389 17.2394 11.518 17.8712 11.382C18.1093 11.3282 18.321 11.1926 18.4695 10.9988C18.618 10.8051 18.6938 10.5654 18.6838 10.3214C18.7064 10.0763 18.6411 9.83108 18.4996 9.62965C18.358 9.42822 18.1495 9.28368 17.9112 9.22187C17.2365 9.09586 16.5549 9.01074 15.87 8.96697L15.872 11.6179ZM15.892 7.61251C16.4846 7.55708 17.0733 7.46662 17.6553 7.34162C17.8736 7.28445 18.0631 7.14865 18.1875 6.96028C18.3118 6.77192 18.3622 6.54427 18.329 6.32102C18.3203 6.10658 18.2359 5.90217 18.0908 5.74405C17.9457 5.58594 17.7492 5.48437 17.5363 5.45736C17.0215 5.3784 16.4667 5.3574 15.9119 5.32042C15.891 6.10111 15.891 6.76884 15.891 7.61351L15.892 7.61251Z" fill="#212121" fill-opacity="0.75"/>
<path d="M3.22589 3.76416H5.36604C5.38603 4.00007 5.40602 4.19599 5.40602 4.4119V9.31995C5.36004 9.66038 5.40229 10.0069 5.52871 10.3263C5.65514 10.6457 5.8615 10.9273 6.12801 11.144C6.39452 11.3608 6.71225 11.5054 7.05072 11.5641C7.38919 11.6228 7.73706 11.5935 8.06097 11.4791C8.53586 11.3989 8.9608 11.1368 9.2456 10.7484C9.5304 10.36 9.65264 9.87595 9.58636 9.39892C9.60635 7.74958 9.58636 6.10023 9.58636 4.43189V3.78415H11.7065C11.7265 3.82314 11.7855 3.84313 11.7855 3.88411C11.7855 5.9263 11.8645 7.96749 11.7655 9.98968C11.7391 10.6533 11.5079 11.2926 11.1035 11.8195C10.6992 12.3464 10.1416 12.7352 9.50739 12.9325C8.23981 13.4163 6.84086 13.4302 5.56396 12.9715C4.92762 12.8104 4.36022 12.4483 3.94603 11.939C3.53185 11.4297 3.29297 10.8005 3.26488 10.1446C3.14692 8.04446 3.22589 5.9233 3.22589 3.76416Z" fill="#212121" fill-opacity="0.75"/>
<path d="M29.9384 10.7542C29.9636 11.0867 30.0232 11.4157 30.1163 11.7358C30.3742 12.3836 30.0374 12.6195 29.5026 12.8154C28.6957 13.1513 27.8274 13.3143 26.9536 13.294C26.0798 13.2737 25.22 13.0705 24.4296 12.6975C23.6039 12.3049 22.939 11.6393 22.5474 10.8132C22.1371 10.0788 21.9263 9.24975 21.9358 8.40857C21.9453 7.56738 22.1749 6.74334 22.6016 6.01839C23.0284 5.29343 23.6375 4.69282 24.3684 4.27628C25.0993 3.85974 25.9264 3.64177 26.7677 3.64406C27.747 3.68707 28.7178 3.84646 29.6595 4.11887C29.9764 4.17785 30.1353 4.37377 30.0164 4.74662C29.9003 5.21173 29.8145 5.68387 29.7595 6.16006C29.2837 5.94415 28.8478 5.70824 28.412 5.5513C27.9083 5.32275 27.3506 5.24007 26.8023 5.31264C26.254 5.38522 25.737 5.61014 25.3101 5.96186C24.8832 6.31358 24.5635 6.77798 24.3874 7.30231C24.2112 7.82663 24.1857 8.38985 24.3136 8.92796C24.5885 10.9512 26.1939 11.9518 28.2741 11.383C28.8409 11.2068 29.3967 10.9968 29.9384 10.7542Z" fill="#212121" fill-opacity="0.75"/>
<path d="M3.22797 21.1603V19.0791C4.11961 18.8013 4.95228 18.5294 5.80394 18.2935C7.18641 17.8527 8.67934 17.9082 10.0253 18.4504C10.7156 18.7674 11.4668 18.9299 12.2265 18.9267C12.9861 18.9234 13.7359 18.7544 14.4235 18.4314C14.7404 18.2945 15.1172 18.2155 15.5531 18.0775C15.4531 18.8432 15.3751 19.491 15.2532 20.1587C15.2332 20.2377 15.1142 20.3157 15.0153 20.3586C14.2297 20.7639 13.3648 20.9918 12.4815 21.0264C11.5982 21.0609 10.7181 20.9012 9.90331 20.5586C9.16476 20.2617 8.37474 20.1141 7.57883 20.1242C6.78293 20.1344 5.99692 20.302 5.26616 20.6175C4.63441 20.8454 3.96067 20.9634 3.22797 21.1603Z" fill="#212121" fill-opacity="0.75"/>
<path d="M30.1983 19.0601V21.1413C29.6134 21.0504 29.0368 20.9127 28.4739 20.7295C27.6121 20.3508 26.6809 20.1552 25.7395 20.1552C24.7981 20.1552 23.867 20.3508 23.0051 20.7295C21.7947 21.1779 20.4614 21.1641 19.2606 20.6905C18.4279 20.4146 17.9921 20.0217 18.0321 19.1381C18.0143 18.7891 17.9746 18.4415 17.9131 18.0975C18.2281 18.166 18.5391 18.2514 18.8448 18.3534C19.5864 18.6944 20.3919 18.8742 21.2082 18.8809C22.0244 18.8877 22.8328 18.7211 23.5799 18.3924C24.9544 17.8592 26.4762 17.8453 27.8602 18.3534C28.5929 18.6083 29.3856 18.8242 30.1983 19.0601Z" fill="#212121" fill-opacity="0.75"/>
<path d="M3.22797 24.8908V22.7507C4.41649 22.4168 5.56604 22.044 6.75456 21.8081C8.22598 21.5142 8.22598 21.5532 8.53885 22.9866C8.59783 23.2615 8.65781 23.5564 8.73877 23.8702C8.58736 23.8859 8.43516 23.8926 8.28296 23.8902C7.21532 23.806 6.14284 23.9741 5.1522 24.381C4.55544 24.596 3.92169 24.7139 3.22797 24.8908Z" fill="#212121" fill-opacity="0.75"/>
<path d="M30.1812 22.7696V24.8318C28.318 24.6349 26.6716 23.4573 24.6724 23.9871C24.8504 23.2024 24.9723 22.5737 25.1482 21.9469C25.1722 21.847 25.4251 21.73 25.5441 21.747C26.3568 21.867 27.1894 21.9649 28.0011 22.1419C28.7148 22.2988 29.4085 22.5347 30.1812 22.7696Z" fill="#212121" fill-opacity="0.75"/>
<path d="M11.6506 22.7885C12.7802 22.5326 13.8498 22.2977 14.9993 22.0618C14.9203 22.6705 14.8404 23.3383 14.7214 23.986C14.7014 24.104 14.5435 24.2219 14.4215 24.2809C12.9551 24.9486 12.9551 24.9486 12.1224 23.5742C11.9505 23.2983 11.7896 23.0234 11.6506 22.7885Z" fill="#212121" fill-opacity="0.75"/>
<path d="M21.7926 22.7887C21.4557 23.3385 21.0989 23.9662 20.703 24.556C20.6421 24.6108 20.5689 24.6502 20.4896 24.6707C20.4102 24.6913 20.3271 24.6924 20.2472 24.6739C19.8022 24.5558 19.3665 24.4047 18.9437 24.2221C18.8877 24.1946 18.8377 24.156 18.7969 24.1088C18.756 24.0616 18.725 24.0066 18.7058 23.9472C18.6029 23.2995 18.5229 22.6707 18.4439 22.043C19.5735 22.2979 20.6631 22.5538 21.7926 22.7887Z" fill="#212121" fill-opacity="0.75"/>
</g>
<defs>
<clipPath id="clip0_1_181">
<rect width="216.878" height="44.9531" fill="white" transform="translate(0.0533142 0.859375)"/>
</clipPath>
</defs>
</svg>
