<svg width="153" height="37" viewBox="0 0 153 37" fill="none" xmlns="http://www.w3.org/2000/svg">
<g clip-path="url(#clip0_1_127)">
<path d="M35.7337 12.0102H39.0202L41.8908 21.2059L45.0103 11.9692H47.6281L50.7066 21.2099L53.5773 12.0142H56.7758L52.034 25.7078H49.3773L46.2577 16.794L43.1382 25.7078H40.4755L35.7337 12.0102Z" fill="#565451"/>
<path d="M64.857 20.0245L63.0239 15.6086L61.1937 20.0245H64.857ZM61.6095 12.0103H64.4382L70.3864 25.7038H67.1879L65.9365 22.6412H60.0703L58.7809 25.7038H55.6613L61.6095 12.0103Z" fill="#565451"/>
<path d="M73.7088 14.874H69.5108V12.1343H80.9914V14.874H76.7934V25.7089H73.7088V14.874Z" fill="#565451"/>
<path d="M83.3242 12.1343H93.7653V14.792H86.3608V17.5317H92.8917V20.1895H86.3608V23.0511H93.8903V25.7089H83.3242V12.1343Z" fill="#565451"/>
<path d="M103.33 18.717C104.829 18.717 105.66 17.9404 105.66 16.795V16.754C105.66 15.4866 104.744 14.8329 103.247 14.8329H100.21V18.717H103.33ZM97.1737 12.1341H103.538C105.012 12.0464 106.462 12.5463 107.569 13.5245C107.978 13.9284 108.297 14.4139 108.505 14.9493C108.714 15.4847 108.807 16.0581 108.779 16.632V16.673C108.819 17.602 108.55 18.5181 108.016 19.2793C107.483 20.0406 106.713 20.6046 105.826 20.884L109.195 25.7497H105.618L102.665 21.4158H100.252V25.7497H97.2157V12.1341H97.1737Z" fill="#565451"/>
<path d="M112.108 12.1343H115.144V22.9692H121.675V25.7089H112.108V12.1343Z" fill="#565451"/>
<path d="M133.699 18.9629C133.717 18.402 133.621 17.8433 133.418 17.3202C133.215 16.7972 132.908 16.3206 132.515 15.9192C132.123 15.5177 131.654 15.1997 131.136 14.9842C130.618 14.7686 130.062 14.66 129.5 14.6649C128.946 14.6569 128.396 14.761 127.884 14.9709C127.371 15.1809 126.906 15.4924 126.516 15.8867C126.127 16.281 125.822 16.7499 125.618 17.2653C125.415 17.7807 125.317 18.332 125.332 18.8859V18.9269C125.319 19.4843 125.418 20.0387 125.624 20.557C125.83 21.0752 126.138 21.5468 126.529 21.9436C126.921 22.3404 127.389 22.6542 127.904 22.8665C128.42 23.0787 128.973 23.1849 129.53 23.1789C130.085 23.1903 130.636 23.0887 131.15 22.8802C131.664 22.6718 132.13 22.3608 132.52 21.9664C132.91 21.5719 133.216 21.1022 133.418 20.5858C133.621 20.0695 133.716 19.5173 133.699 18.9629ZM122.134 18.9629C122.142 18.008 122.341 17.0645 122.72 16.1881C123.099 15.3118 123.65 14.5204 124.341 13.8608C125.031 13.2012 125.847 12.6868 126.74 12.3482C127.633 12.0095 128.584 11.8535 129.538 11.8892C130.486 11.8451 131.433 11.9932 132.322 12.3245C133.211 12.6558 134.024 13.1636 134.712 13.8172C135.4 14.4708 135.948 15.2568 136.324 16.1279C136.701 16.9989 136.897 17.9371 136.901 18.8859V18.9269C136.889 19.8785 136.686 20.8181 136.305 21.6903C135.924 22.5624 135.372 23.3493 134.682 24.0048C133.992 24.6602 133.177 25.1709 132.287 25.5066C131.396 25.8423 130.448 25.9963 129.496 25.9596C128.55 25.9966 127.606 25.8437 126.72 25.5098C125.834 25.1759 125.024 24.6679 124.338 24.0156C123.652 23.3634 123.103 22.5802 122.724 21.7124C122.346 20.8445 122.145 19.9096 122.134 18.9629Z" fill="#565451"/>
<path d="M149.297 18.9629C149.315 18.402 149.22 17.8433 149.016 17.3202C148.813 16.7972 148.506 16.3206 148.114 15.9192C147.722 15.5177 147.253 15.1997 146.735 14.9842C146.217 14.7686 145.66 14.66 145.099 14.6649C144.545 14.6569 143.995 14.761 143.482 14.9709C142.97 15.1809 142.504 15.4924 142.115 15.8867C141.726 16.281 141.42 16.7499 141.217 17.2653C141.013 17.7807 140.916 18.332 140.931 18.8859V18.9269C140.918 19.4843 141.017 20.0387 141.223 20.557C141.428 21.0752 141.736 21.5468 142.128 21.9436C142.52 22.3404 142.987 22.6542 143.503 22.8665C144.019 23.0787 144.572 23.1849 145.129 23.1789C145.684 23.1903 146.235 23.0887 146.749 22.8802C147.263 22.6718 147.729 22.3608 148.119 21.9664C148.509 21.5719 148.815 21.1022 149.017 20.5858C149.22 20.0695 149.315 19.5173 149.297 18.9629ZM137.733 18.9629C137.741 18.008 137.94 17.0645 138.319 16.1881C138.698 15.3118 139.249 14.5204 139.94 13.8608C140.63 13.2012 141.446 12.6868 142.339 12.3482C143.231 12.0095 144.183 11.8535 145.137 11.8892C146.085 11.8451 147.032 11.9932 147.921 12.3245C148.81 12.6558 149.623 13.1636 150.311 13.8172C150.998 14.4708 151.547 15.2568 151.923 16.1279C152.299 16.9989 152.495 17.9371 152.5 18.8859V18.9269C152.487 19.8785 152.285 20.8181 151.904 21.6903C151.523 22.5624 150.971 23.3493 150.281 24.0048C149.59 24.6602 148.776 25.1709 147.886 25.5066C146.995 25.8423 146.046 25.9963 145.095 25.9596C144.148 26.0001 143.203 25.8496 142.315 25.517C141.428 25.1844 140.616 24.6765 139.929 24.0235C139.242 23.3706 138.694 22.5861 138.316 21.7166C137.939 20.8472 137.74 19.9106 137.733 18.9629Z" fill="#565451"/>
<path d="M43.4721 5.26334V1.66504H44.8864V5.22236C44.8864 6.24488 45.4271 6.77563 46.2587 6.77563C47.1323 6.77563 47.6311 6.28486 47.6311 5.26234V1.66504H49.0464V5.18138C49.0902 5.55957 49.0485 5.94275 48.9244 6.30267C48.8003 6.66258 48.5969 6.99004 48.3294 7.26086C48.0618 7.53169 47.7369 7.73898 47.3785 7.86744C47.0201 7.9959 46.6374 8.04224 46.2587 8.00305C45.8854 8.05169 45.5058 8.01472 45.1488 7.89495C44.7918 7.77519 44.4668 7.57576 44.1983 7.31178C43.9297 7.0478 43.7248 6.72618 43.599 6.37128C43.4732 6.01638 43.4298 5.6375 43.4721 5.26334Z" fill="#565451"/>
<path d="M52.7917 1.66504H54.0811L57.0797 5.50823V1.66504H58.449V7.92109H57.2426L54.164 3.95496V7.92109H52.7917V1.66504Z" fill="#565451"/>
<path d="M62.4871 1.66504H63.9014V7.92109H62.4871V1.66504Z" fill="#565451"/>
<path d="M67.3478 1.66504H68.8871L70.5463 6.08096L72.2145 1.66504H73.7138L71.1331 7.96207H69.8856L67.3478 1.66504Z" fill="#565451"/>
<path d="M77.1202 1.66504H81.9459V2.89146H78.5345V4.16386H81.5331V5.38628H78.5345V6.69467H81.9869V7.92109H77.1202V1.66504Z" fill="#565451"/>
<path d="M85.6542 1.66516H88.5658C88.9064 1.63586 89.2493 1.67905 89.572 1.7919C89.8947 1.90474 90.1898 2.08468 90.4379 2.31985C90.6242 2.50659 90.7687 2.73074 90.8619 2.97747C90.9551 3.22421 90.9949 3.48792 90.9787 3.75117C91.0025 4.17916 90.88 4.60253 90.6313 4.95167C90.3827 5.3008 90.0226 5.55493 89.6103 5.67227L91.1906 7.92121H89.5223L88.15 5.92215H87.0265V7.92121H85.6122V1.66516H85.6542ZM88.4828 4.73171C89.1485 4.73171 89.5643 4.36388 89.5643 3.83213C89.5643 3.2594 89.1485 2.93256 88.4408 2.93256H87.0265V4.73171H88.4828Z" fill="#565451"/>
<path d="M94.2221 7.02145L95.0537 6.03991C95.582 6.51293 96.2583 6.78749 96.9668 6.81654C97.5496 6.81654 97.8824 6.61664 97.8824 6.24381C97.8824 5.87099 97.6745 5.71306 96.593 5.46318C95.3036 5.14033 94.472 4.81349 94.472 3.54609C94.472 2.40063 95.3866 1.66497 96.721 1.66497C97.5748 1.65229 98.4084 1.92568 99.0888 2.44161L98.3822 3.42314C97.8968 3.06706 97.3212 2.85442 96.721 2.80943C96.1802 2.80943 95.8894 3.05432 95.8894 3.34118C95.8894 3.74999 96.1802 3.87293 97.2617 4.1588C98.5511 4.48564 99.2997 4.93543 99.2997 6.03991C99.2967 7.26233 98.3402 7.962 96.9678 7.962C95.9672 8.0025 94.9877 7.66696 94.2221 7.02145Z" fill="#565451"/>
<path d="M102.999 1.66504H104.413V7.92109H102.999V1.66504Z" fill="#565451"/>
<path d="M109.862 2.93244H107.907V1.66504H113.231V2.93244H111.276V7.92109H109.862V2.93244Z" fill="#565451"/>
<path d="M118.517 5.46325L116.063 1.66504H117.727L119.261 4.16386L120.805 1.66504H122.386L119.931 5.42627V7.92509H118.517V5.46325Z" fill="#565451"/>
<path d="M130.369 4.81356C130.37 4.37228 130.46 3.93569 130.633 3.52994C130.807 3.1242 131.06 2.75765 131.379 2.45227C131.697 2.14689 132.074 1.90896 132.487 1.75273C132.9 1.59651 133.34 1.52521 133.78 1.5431C134.216 1.52491 134.651 1.59499 135.059 1.74912C135.467 1.90325 135.839 2.13826 136.154 2.44001C136.469 2.74176 136.719 3.10404 136.89 3.50506C137.061 3.90607 137.15 4.33756 137.15 4.77358C137.145 5.21172 137.052 5.64437 136.876 6.04585C136.701 6.44732 136.446 6.80943 136.128 7.11066C135.81 7.4119 135.434 7.64612 135.024 7.79942C134.613 7.95272 134.176 8.02197 133.738 8.00305C133.304 8.02918 132.87 7.96594 132.461 7.81725C132.052 7.66857 131.678 7.43759 131.362 7.13862C131.047 6.83964 130.795 6.47904 130.625 6.07911C130.454 5.67919 130.367 5.24845 130.369 4.81356ZM135.694 4.81356C135.702 4.55413 135.658 4.29568 135.563 4.05414C135.468 3.81261 135.324 3.59313 135.141 3.40926C134.958 3.22539 134.739 3.08103 134.497 2.98509C134.256 2.88916 133.998 2.84369 133.738 2.85148C133.482 2.84746 133.227 2.89583 132.99 2.99365C132.753 3.09146 132.538 3.23666 132.359 3.42034C132.18 3.60402 132.04 3.82233 131.949 4.06189C131.857 4.30145 131.815 4.55723 131.825 4.81356C131.819 5.07231 131.866 5.3296 131.962 5.56995C132.058 5.81029 132.202 6.02873 132.384 6.21212C132.567 6.3955 132.785 6.54005 133.025 6.63707C133.265 6.73408 133.522 6.78155 133.78 6.77663C134.036 6.77727 134.289 6.72655 134.525 6.62749C134.761 6.52843 134.974 6.38305 135.152 6.19996C135.331 6.01687 135.471 5.79981 135.564 5.56166C135.657 5.3235 135.701 5.06911 135.694 4.81356Z" fill="#565451"/>
<path d="M140.184 1.66504H145.051V2.93244H141.599V4.24082H144.635V5.50823H141.599V7.92109H140.184V1.66504Z" fill="#565451"/>
<path d="M24.5843 3.91689C24.2513 3.75189 23.8343 3.54689 23.6683 3.95689C23.5843 4.28489 24.2933 4.03889 24.5843 3.91689Z" fill="#565451"/>
<path d="M4.61938 22.0275C4.91058 22.7605 5.24376 23.4965 5.61891 24.2355L16.1839 16.0583L26.709 24.2355C27.0838 23.4998 27.3747 22.7632 27.6655 22.0275L16.142 13.0737L4.61938 22.0275Z" fill="#565451"/>
<path d="M0.50032 0.562523L0.542301 1.4621C0.542301 2.11679 0.584281 2.77048 0.584281 3.42517C0.750203 12.0111 0.916124 20.1473 6.15765 28.0386C8.5958 31.5166 11.9525 34.2486 15.8531 35.9298L16.2269 36.0938L16.6017 35.9298C20.4964 34.2589 23.8411 31.5238 26.2522 28.0386C31.5347 20.1473 31.7016 12.0521 31.8675 3.42417C31.8675 2.76948 31.9095 2.11579 31.9095 1.4611L31.9515 0.561523L0.50032 0.562523ZM30.786 1.99385C30.786 2.64854 30.7441 3.26125 30.7441 3.91594C30.5781 12.175 30.4112 19.9844 25.4196 27.5048C23.1435 30.8104 19.9665 33.3931 16.2659 34.9463L16.1409 34.9873L16.016 34.9463C12.3313 33.3677 9.16134 30.7901 6.86432 27.5048C1.87267 19.9844 1.70675 12.174 1.49985 3.91494C1.49985 3.26125 1.45687 2.64754 1.45687 1.99385V1.70698H30.786V1.99385Z" fill="#565451"/>
<path d="M9.32252 4.07918C9.32802 4.07945 9.33352 4.07859 9.33868 4.07664C9.34383 4.07469 9.34853 4.0717 9.35247 4.06785C9.35642 4.064 9.35952 4.05938 9.3616 4.05427C9.36367 4.04917 9.36466 4.04369 9.36452 4.03818C9.07252 3.62818 8.69752 3.66918 8.57252 4.03818C8.44752 4.24618 9.03052 4.20218 9.32252 4.07918Z" fill="#565451"/>
<path d="M16.1399 10.9897L28.2033 20.3532C29.9095 15.0747 30.0344 9.59931 30.1583 3.91599C30.1583 3.38424 30.2003 2.81651 30.2003 2.28076H2.03859C2.03859 2.81251 2.08057 3.38024 2.08057 3.91599C2.20451 9.64029 2.32945 15.1197 4.03765 20.3942L16.1399 10.9897ZM23.7524 13.8113C23.4601 13.7281 23.1538 13.7069 22.8529 13.749C22.552 13.7912 22.2632 13.8958 22.0052 14.0562C21.9827 14.0186 21.9684 13.9767 21.9632 13.9333L21.9212 13.8923C21.8048 13.8126 21.667 13.7699 21.5259 13.7699C21.3848 13.7699 21.247 13.8126 21.1306 13.8923C21.0886 13.9333 21.1306 14.0562 21.1306 14.0562C20.6308 13.8923 20.7148 13.5245 20.9647 13.3565C21.0066 13.3565 20.7977 13.2336 20.7148 13.2336C20.6318 13.2746 20.7568 13.3975 20.7148 13.3975C20.4239 13.3156 20.215 13.1526 20.257 12.9068C20.34 12.5799 20.8397 12.6209 20.8397 12.5389C20.8817 11.9662 20.257 12.8248 20.6318 12.0482C20.7568 11.7623 21.4225 11.8033 21.5054 12.1301C21.535 12.3648 21.6228 12.5884 21.7609 12.7804C21.899 12.9724 22.083 13.1269 22.296 13.2296C22.4386 13.2657 22.5894 13.2482 22.7199 13.1804C22.8503 13.1126 22.9514 12.9992 23.0037 12.8618C23.1286 12.371 22.8788 11.6354 23.4615 11.4304C23.9193 11.2665 24.543 11.8393 24.418 12.1301C24.418 12.298 23.5035 12.5839 23.7524 13.8113ZM26.581 4.24384C26.6008 4.07037 26.6563 3.90287 26.744 3.75187C26.8316 3.60086 26.9495 3.46962 27.0903 3.36637C27.2311 3.26312 27.3918 3.19009 27.5621 3.15189C27.7325 3.11368 27.9089 3.11112 28.0803 3.14435C28.8709 3.38924 29.0798 4.08491 28.663 4.94351C28.2913 5.6071 28.0246 6.32427 27.8724 7.0695C27.8724 7.11048 27.9144 7.31439 27.9974 7.19245C28.2053 7.02852 28.2882 6.6607 28.5381 6.41581C28.3025 7.24108 28.274 8.11171 28.4551 8.95062C28.4551 9.11454 28.0393 9.60531 28.0813 9.80921C28.2063 10.8317 29.0379 12.0172 28.0393 12.8348C27.8031 13.0188 27.5059 13.1063 27.2077 13.0797C26.9578 13.0797 27.0408 13.4065 27.0828 13.6524C27.1248 14.1432 28.0823 14.3521 28.0823 14.552C28.0823 15.4106 27.5825 15.7784 27.5416 16.596C27.5416 16.8409 27.2507 17.1687 27.2507 17.2507C27.2507 17.1687 27.1677 17.0868 27.1677 17.0058C27.1677 17.0468 27.1258 16.9239 27.1258 16.8829C27.1241 16.8615 27.1148 16.8415 27.0996 16.8264C27.0843 16.8113 27.0642 16.8023 27.0428 16.8009C26.9555 16.7674 26.8586 16.7696 26.7729 16.807C26.6873 16.8444 26.6198 16.9141 26.585 17.0008C26.585 17.0418 26.543 17.0008 26.4601 17.1238C26.4601 17.1238 26.3771 17.1647 26.3771 17.2057C26.2522 17.3287 26.2112 17.3287 26.1692 17.3287C26.0863 17.3696 26.0863 17.3287 26.0033 17.3287H25.9203C25.889 17.3244 25.8598 17.31 25.8374 17.2877H25.7544C25.7124 17.2877 25.7544 17.3696 25.7124 17.3696C25.7126 17.3641 25.7116 17.3587 25.7095 17.3536C25.7074 17.3485 25.7043 17.3438 25.7004 17.34C25.6964 17.3361 25.6918 17.3331 25.6866 17.3312C25.6815 17.3293 25.676 17.3284 25.6704 17.3287C25.665 17.3288 25.6595 17.3278 25.6545 17.3258C25.6494 17.3238 25.6447 17.3208 25.6408 17.317C25.6369 17.3132 25.6338 17.3086 25.6317 17.3036C25.6296 17.2986 25.6285 17.2932 25.6285 17.2877C25.6126 17.2717 25.6006 17.2523 25.5934 17.231C25.5861 17.2097 25.5837 17.1871 25.5865 17.1647V17.0008L25.7114 16.7559L25.7944 16.674C25.4196 16.715 25.2117 16.551 25.1707 16.674C25.1297 16.7969 24.7959 15.8154 25.8784 16.0603C25.5455 15.8963 25.4625 15.6515 25.2956 15.7744C25.2127 15.8154 25.3376 15.1197 25.8784 15.2427C26.2532 15.3246 26.1282 15.8973 26.3781 16.0603C26.8359 16.3052 27.0438 15.2836 27.0438 15.2427C27.1268 14.7929 26.586 14.3841 26.0873 14.3431C25.6179 14.4059 25.1423 14.4059 24.6729 14.3431C24.4321 14.2044 24.2544 13.9779 24.1769 13.7111C24.0994 13.4443 24.1281 13.1578 24.2571 12.9117C24.424 12.421 24.9228 12.298 25.3806 12.2121C24.8679 11.3606 24.1716 10.6343 23.3425 10.0861C23.1937 9.91438 23.0985 9.70274 23.0688 9.47744C23.0392 9.25213 23.0763 9.02307 23.1756 8.81868C23.2176 8.7777 23.5914 9.01859 23.6754 9.18651C23.7602 9.01521 23.8789 8.86291 24.0243 8.73881C24.1697 8.6147 24.3387 8.52137 24.5212 8.46447C24.7037 8.40757 24.8958 8.38827 25.0859 8.40775C25.2761 8.42723 25.4603 8.48508 25.6275 8.57779C25.6695 8.57779 25.5445 9.02758 25.5855 9.1915C25.6197 10.2809 26.0658 11.3168 26.8339 12.0901C27.0008 12.2541 26.8759 12.6219 27.1248 12.6629C27.3167 12.7146 27.521 12.693 27.6978 12.6022C27.8747 12.5115 28.0114 12.3582 28.0813 12.1721C28.1643 12.0082 28.1643 10.7408 27.7485 10.4959C27.4156 10.296 27.0828 10.7408 27.0828 11.1096C26.9998 10.8647 26.7499 10.5369 26.7919 10.251C26.9169 9.71925 27.3327 9.71925 27.6655 9.92416C27.4519 9.04156 27.3817 8.13033 27.4576 7.22543C27.6658 6.50206 27.8188 5.76396 27.9154 5.01747C27.9574 4.77259 27.7075 4.44474 27.2497 4.56768C27.1828 4.59504 27.1243 4.63974 27.0804 4.69719C27.0365 4.75464 27.0087 4.82276 26.9998 4.89453C27.0207 5.43066 26.9788 5.9674 26.8749 6.49378C26.8329 6.37083 26.8749 6.20791 26.8329 6.04399C26.6361 5.46521 26.5506 4.85441 26.581 4.24384ZM25.8734 8.41387C25.6138 8.24037 25.3116 8.14148 24.9998 8.128C23.9593 8.08702 23.7104 8.74172 23.6274 8.65975C23.3161 8.42957 22.9625 8.26282 22.5869 8.16899C22.0871 7.7192 23.5025 6.53376 24.0432 6.28787C24.7919 5.92005 25.5825 5.5882 25.9153 4.68863C25.9573 4.5247 26.1232 4.97449 26.1232 4.97449C26.4981 6.12395 25.7064 7.26941 25.8734 8.41387ZM22.6289 4.03893C22.8788 3.71209 23.2946 3.87501 23.5435 3.71209C24.2511 3.18034 24.459 3.54816 25.2077 3.75307C25.4156 3.83503 25.7484 3.67111 25.9563 3.58914C25.9983 3.54816 25.9983 3.91599 25.9983 3.95697C25.9153 4.20186 25.6655 4.15688 25.5825 4.40676C25.4576 4.73361 25.4156 5.14241 25.0827 5.30634L25.1247 5.26535C24.9998 5.34732 24.8338 5.34732 24.7089 5.42928C24.6259 5.47026 24.543 5.55222 24.459 5.5932C24.3979 5.63785 24.3263 5.66607 24.2511 5.67516C24.1262 5.71614 24.1682 5.67516 24.0432 5.71614H23.2116C23.1233 5.70765 23.0379 5.67965 22.9617 5.63418C22.9197 5.63418 22.8368 5.5932 22.7948 5.5932C22.7887 5.53529 22.8036 5.47712 22.8368 5.42928C22.8788 5.3883 22.9197 5.42928 23.0037 5.42928H23.2116C23.2342 5.43203 23.2571 5.42978 23.2786 5.4227C23.3002 5.41562 23.32 5.40387 23.3366 5.3883C23.3785 5.34732 23.4195 5.34732 23.4615 5.30634L23.5035 5.26535C23.5455 5.22437 23.5864 5.22437 23.5864 5.18339C23.6811 5.09939 23.7404 4.98258 23.7524 4.85655V4.5297C23.7496 4.45526 23.7202 4.38429 23.6694 4.3298C23.4195 3.92099 22.8788 4.3298 22.5049 4.28882C22.5879 4.24384 22.5879 4.07991 22.6289 4.03893ZM22.0052 4.65264C22.463 4.61166 22.9207 4.28482 23.4615 4.85255C23.423 4.83207 23.3801 4.82136 23.3366 4.82136C23.293 4.82136 23.2501 4.83207 23.2116 4.85255C23.0934 4.95392 22.9548 5.02863 22.8052 5.0716C22.6555 5.11457 22.4984 5.12478 22.3444 5.10154C22.1905 5.0783 22.0433 5.02216 21.913 4.93693C21.7828 4.85171 21.6724 4.7394 21.5894 4.60766C21.7143 4.57068 21.8802 4.65264 22.0052 4.65264ZM19.3434 4.7346C19.3908 4.66178 19.4465 4.59469 19.5094 4.5347C19.5259 4.51912 19.5457 4.50738 19.5673 4.5003C19.5889 4.49321 19.6117 4.49097 19.6343 4.49372C19.7173 4.49372 19.8012 4.45274 19.8842 4.5347C19.9671 4.57568 20.0501 4.65764 20.1341 4.69862H20.176C20.1341 4.24883 20.3839 4.20785 20.259 3.92199C20.3839 3.96297 20.6338 3.96297 20.7168 4.04493C20.7997 4.12689 21.0076 4.28981 20.9667 4.45374C20.7168 5.76212 22.2141 5.96702 22.9657 6.6617C22.7437 6.8594 22.5603 7.09665 22.425 7.36137C22.0811 7.01224 21.619 6.80438 21.1296 6.77864C21.1296 6.61472 21.3375 6.61472 21.2965 6.53376C21.1716 6.24789 20.7967 5.7981 20.4649 5.75712C20.298 5.75712 20.1321 6.20691 19.8822 6.16593C19.7572 6.12495 19.5074 6.08397 19.4664 6.16593C19.4254 6.24789 19.4244 5.51124 19.7163 5.43028C19.7992 5.3893 19.8832 5.43028 19.9661 5.43028C20.0491 5.43028 20.0911 5.30733 20.0491 5.26635H20.0071C19.8945 5.27564 19.7812 5.26169 19.6743 5.22537C19.6691 5.18501 19.6553 5.14624 19.6337 5.11173C19.6121 5.07722 19.5834 5.04779 19.5493 5.02547C19.5074 4.98449 19.5074 4.90253 19.4664 4.86155C19.4175 4.82904 19.3588 4.81455 19.3005 4.82056C19.3041 4.78743 19.3193 4.75764 19.3434 4.7346ZM19.4684 7.9241C19.5104 7.96508 19.6353 7.9241 19.5933 7.88312L19.4684 7.68321C19.3854 7.64223 19.3854 7.56027 19.3434 7.51929L19.3015 7.47831C19.2595 7.43733 19.2595 7.43733 19.2595 7.39635C19.2175 7.23243 19.2175 7.0695 19.3844 6.98754L19.4264 6.94656C19.4264 6.94656 19.4684 6.94656 19.4264 6.90558C19.4684 6.8646 19.4684 6.82362 19.3844 6.78264H19.5513C19.7173 6.82362 19.9262 6.8646 19.9671 7.02752L20.0091 7.10949C20.175 7.51829 20.1341 8.49983 21.0906 8.74471C21.591 8.89898 22.1075 8.9949 22.6299 9.03058C22.5403 9.28602 22.52 9.56064 22.5711 9.82648C22.6222 10.0923 22.7428 10.3398 22.9207 10.5439C22.338 10.217 21.9212 10.299 21.4215 9.80821C21.1424 9.5592 20.7934 9.40216 20.4219 9.35842C20.297 9.35842 20.5888 9.03158 20.339 8.94962C20.172 8.90864 19.7562 8.90864 19.7153 9.03158C19.3824 9.52235 19.0076 9.52235 18.8836 9.64529C19.0086 9.52235 18.3429 8.9906 19.1745 8.66375C19.2575 8.62277 19.2995 8.46385 19.1745 8.41887C19.0076 8.33691 18.8836 8.45985 18.7167 8.54181C18.5088 8.66475 18.4668 8.25594 18.176 8.37789C18.22 7.47831 19.0106 7.39235 19.4684 7.9241ZM11.9809 10.8667C12.6886 11.1526 13.3952 10.167 13.3123 9.43539C13.2832 9.32123 13.2266 9.2159 13.1475 9.12856C13.0684 9.04123 12.9692 8.97452 12.8585 8.93423C12.7478 8.89394 12.6289 8.8813 12.5122 8.89739C12.3955 8.91348 12.2845 8.95783 12.1888 9.02658C12.1604 8.90069 12.1733 8.76898 12.2257 8.65103C12.2781 8.53309 12.3672 8.43519 12.4797 8.37189C12.7295 8.24895 13.3113 8.37189 13.1863 8.17198C12.877 7.8019 12.6811 7.3504 12.622 6.87169C12.563 6.39299 12.6434 5.90741 12.8535 5.47326C13.0406 4.91005 13.4153 4.42814 13.9151 4.10811C14.4149 3.78808 15.0094 3.64934 15.5992 3.71509C16.3069 3.83803 17.4293 4.45074 18.22 4.3288C18.053 4.77858 17.6792 4.94251 17.2634 5.14641C16.5977 5.47326 16.099 5.18739 15.5992 5.26935C15.8032 5.46553 15.9352 5.72466 15.974 6.00501C15.4743 5.47326 14.2268 5.06445 13.6441 5.88206C13.3965 6.11111 13.23 6.41452 13.17 6.74648C13.11 7.07843 13.1595 7.4209 13.3113 7.7222C13.3365 7.53074 13.4079 7.34827 13.5192 7.19045C13.5612 7.06751 14.1019 6.99054 13.977 6.69968C14.1019 6.69968 14.2678 6.8636 14.3098 7.02652C14.4347 7.55827 13.7271 7.68122 13.852 8.00806C14.1429 8.7847 13.894 8.82568 13.7691 9.27546C13.6031 10.213 13.2333 11.3985 11.9339 11.2345C11.9292 11.4106 11.8819 11.5829 11.7961 11.7367C11.7103 11.8905 11.5885 12.0212 11.4411 12.1176C11.2938 12.2141 11.1253 12.2734 10.95 12.2906C10.7747 12.3077 10.5979 12.2822 10.4346 12.2161C10.2267 12.1751 10.3517 12.461 10.4346 12.6249C10.6425 12.9517 11.0174 13.1566 11.2662 13.4425C10.5169 13.7367 9.82835 14.1667 9.2352 14.7109C8.98531 14.9558 8.90235 15.4106 8.56951 15.5695C8.65247 15.2836 8.36161 15.2017 8.19469 15.2836C7.86184 15.4835 7.86184 16.1012 7.3211 15.8154C7.28621 15.827 7.25563 15.8488 7.23334 15.8781C7.21106 15.9073 7.1981 15.9426 7.19616 15.9793L7.15418 15.9383L7.07122 15.8564C7.02924 15.8154 7.02924 15.7744 7.02924 15.6924C7.0238 15.6232 7.03837 15.5538 7.07122 15.4925C7.11937 15.4069 7.19168 15.3374 7.27912 15.2926C7.3211 15.2516 7.40406 15.1697 7.27912 15.1697L7.19616 15.1287H7.1132C7.09143 15.1282 7.06978 15.132 7.04953 15.14C7.02929 15.1481 7.01087 15.1601 6.99539 15.1754C6.9799 15.1907 6.96765 15.209 6.95939 15.2291C6.95112 15.2493 6.947 15.2709 6.94728 15.2926C6.94728 15.2516 6.82233 15.0927 6.86431 15.1287C6.65641 15.0058 6.78135 14.8838 6.86431 14.7199C6.86417 14.7144 6.86516 14.7089 6.86724 14.7038C6.86931 14.6987 6.87241 14.6941 6.87635 14.6902C6.8803 14.6864 6.88499 14.6834 6.89014 14.6814C6.89529 14.6795 6.90079 14.6786 6.90629 14.6789C7.03124 14.434 7.44704 14.6379 7.53 14.3111C7.52089 14.2819 7.50472 14.2554 7.48293 14.234C7.46114 14.2125 7.43439 14.1968 7.40506 14.1881C7.36308 14.1881 7.3221 14.2701 7.28012 14.3111C7.27354 14.2005 7.28778 14.0896 7.3221 13.9842C7.37807 13.8971 7.46322 13.8328 7.56231 13.8028C7.66139 13.7727 7.76793 13.779 7.86284 13.8203C8.48655 14.475 9.15224 14.0652 9.73496 13.6974C10.0678 13.4975 9.90088 13.2066 9.61002 13.1656C8.94433 13.1246 8.15371 12.7158 8.11073 12.1021C8.10866 11.8983 8.16331 11.6978 8.26858 11.5233C8.37385 11.3487 8.52559 11.2068 8.70685 11.1134C8.88811 11.0201 9.09175 10.979 9.29501 10.9948C9.49828 11.0105 9.69317 11.0824 9.8579 11.2026C9.89988 10.9577 9.69198 10.7937 9.52506 10.6708C9.0253 10.4259 7.69492 10.0981 8.19369 9.60731C8.73543 9.06756 9.94186 9.51735 10.5666 8.9866C10.6569 9.38182 10.8295 9.75355 11.0732 10.0775C11.3169 10.4015 11.6262 10.6704 11.9809 10.8667ZM11.2732 6.24689C11.2732 7.02353 10.4416 7.88212 11.1073 8.61877C10.8246 8.62667 10.547 8.54209 10.3167 8.37789C10.1917 8.29593 10.2337 8.74571 10.2337 8.82768C10.2337 8.90964 9.73396 8.33691 9.52606 8.50083C9.31042 8.70395 9.05474 8.85981 8.7754 8.95844C8.49606 9.05706 8.1992 9.09627 7.90382 9.07356C7.65394 9.07356 7.57098 9.27347 7.48802 9.44139C7.3554 8.91451 7.36992 8.36134 7.53 7.84214C7.82086 6.81962 8.90235 6.49178 9.73496 6.00101C10.0202 5.82012 10.2492 5.56311 10.3962 5.25898C10.5431 4.95485 10.6021 4.61571 10.5666 4.27982C11.0184 4.83639 11.2676 5.53003 11.2732 6.24689ZM7.69592 3.91599C8.11173 3.79305 8.48655 3.63013 8.90235 3.50718C9.2352 3.38424 9.56804 3.67111 9.90188 3.67111C10.0018 3.66606 10.0991 3.63756 10.1859 3.58789C10.2728 3.53822 10.3467 3.4688 10.4016 3.38524C10.4016 3.50818 10.5676 3.67111 10.4846 3.79405C10.4016 3.95797 10.1937 4.03893 10.1518 4.20286C10.0688 4.48872 10.3177 4.77559 10.1518 5.10243C9.61102 5.96103 8.48755 5.67516 7.69792 5.87907C7.71658 5.82882 7.71859 5.77391 7.70365 5.72243C7.68871 5.67096 7.65762 5.62565 7.61496 5.5932C7.9478 5.63418 8.44657 5.55222 8.53053 5.30733C8.60239 5.18308 8.64022 5.04207 8.64022 4.89853C8.64022 4.75499 8.60239 4.61398 8.53053 4.48972C8.28065 4.03993 7.7399 4.24484 7.36608 4.40776C7.35448 4.35374 7.35387 4.29794 7.36429 4.24368C7.3747 4.18942 7.39593 4.13781 7.42671 4.09192C7.45749 4.04604 7.49718 4.00681 7.54343 3.97659C7.58968 3.94637 7.64154 3.92576 7.69592 3.91599ZM8.19569 5.22437C7.82086 5.10143 6.61543 5.71514 6.11567 4.93851C6.73637 5.06145 7.65494 4.27982 8.19569 5.22437ZM3.82775 4.24384C3.74479 4.16187 3.66182 4.20286 3.57786 4.16187C3.4939 4.12089 3.45292 4.03893 3.41194 3.99795C3.36996 3.91599 3.41194 3.79805 3.36996 3.75307C3.37011 3.74756 3.36911 3.74208 3.36704 3.73698C3.36497 3.73188 3.36186 3.72726 3.35792 3.72341C3.35398 3.71956 3.34929 3.71657 3.34413 3.71462C3.33898 3.71267 3.33348 3.71181 3.32798 3.71209C3.38505 3.70594 3.44027 3.68823 3.49028 3.66005C3.54028 3.63187 3.58403 3.5938 3.61884 3.54816L3.66082 3.50718H3.91071C3.95269 3.50718 3.99367 3.54816 4.03565 3.54816C4.03565 3.54816 4.20157 3.67111 4.20157 3.71209C4.20149 3.7566 4.21626 3.79986 4.24355 3.83503C4.28553 3.91699 4.28553 3.99895 4.32651 4.03493C4.36849 4.03493 4.32651 4.07592 4.36849 4.07592C4.36849 4.1169 4.49343 4.1169 4.49343 4.1169L4.53541 4.15788C4.57739 4.19886 4.53541 4.19886 4.61837 4.19886C4.66035 4.19886 4.66035 4.15788 4.61837 4.1169C4.61837 3.99395 4.53541 3.83103 4.66035 3.70809L4.70233 3.66711L4.74431 3.62613C4.78629 3.58515 4.78629 3.54417 4.78629 3.4622C4.78629 3.50319 4.86926 3.50319 4.86926 3.50319C4.91124 3.54417 4.95222 3.54417 5.03518 3.58515C5.04068 3.58487 5.04618 3.58573 5.05133 3.58768C5.05648 3.58963 5.06118 3.59262 5.06512 3.59647C5.06906 3.60032 5.07216 3.60494 5.07424 3.61004C5.07631 3.61514 5.0773 3.62062 5.07716 3.62613C5.2021 3.66711 5.24308 3.99395 5.24308 4.03493C4.91024 5.3843 6.24261 6.4468 7.69692 6.73366L7.57198 6.81562C7.48902 6.93857 7.48902 6.97955 7.40606 7.10149C7.32127 7.21468 7.2514 7.3383 7.19816 7.46932C7.19816 7.5103 7.15618 7.46932 7.1152 7.46932C7.07422 7.46932 7.07322 7.42833 7.03224 7.42833C6.90729 7.42833 6.90729 7.38735 6.78235 7.42833C6.7108 7.42558 6.6396 7.43962 6.57445 7.46932H6.40653C6.36455 7.38735 6.40653 7.30539 6.36455 7.22443C6.32257 7.18345 6.23961 7.14247 6.19863 7.10149C6.15765 7.06051 6.11567 7.06451 6.0367 7.02353C5.99472 7.02353 5.95374 6.98255 5.91176 6.98255C5.82343 6.97405 5.73809 6.94606 5.66188 6.90058C5.57892 6.81862 5.53694 6.81862 5.45398 6.70068C5.32904 6.57774 5.32904 6.37383 5.2041 6.20991C5.09316 6.06014 4.92958 5.95799 4.74631 5.92404C4.33051 5.84208 4.78829 5.84208 4.62137 5.55622C4.50707 5.37065 4.34792 5.21681 4.15858 5.10887C3.96924 5.00093 3.7558 4.94234 3.53788 4.93851C3.41294 4.93851 3.41294 4.57068 3.16306 4.65264C3.41294 4.40776 3.62084 4.57068 3.82875 4.36678C3.91071 4.27982 3.82775 4.24384 3.82775 4.24384ZM3.7028 9.10854C3.7028 9.1905 3.4949 8.7817 3.53688 8.74072C3.7028 8.45485 3.74479 8.37289 3.74479 8.29093C3.74479 8.20897 3.32898 8.04604 3.287 8.12701C3.16206 8.32691 2.82922 7.51329 3.82775 7.55428C3.53688 7.39035 3.57786 7.35437 3.66182 7.14547C3.6567 7.12908 3.64743 7.11428 3.63492 7.10251C3.62241 7.09074 3.60707 7.0824 3.5904 7.07828C3.57372 7.07416 3.55627 7.07441 3.53971 7.079C3.52316 7.08359 3.50807 7.09237 3.4959 7.10449C3.48902 7.08839 3.48575 7.07098 3.48632 7.05348C3.48688 7.03598 3.49127 7.01881 3.49918 7.00319C3.50708 6.98757 3.51831 6.97387 3.53208 6.96305C3.54585 6.95223 3.56182 6.94455 3.57886 6.94057C3.74486 6.89267 3.92265 6.90725 4.07863 6.98155C4.49443 7.18145 4.45345 7.75818 4.82727 7.9221C5.16508 8.1154 5.5407 8.23335 5.92837 8.26786C6.31604 8.30236 6.70658 8.25261 7.07322 8.12201C6.99978 8.44393 6.98555 8.77653 7.03124 9.10355C6.82333 9.26747 6.11567 9.06256 5.65888 8.90364C5.36802 8.7807 5.11814 9.23049 4.78529 9.1895C4.78529 9.14852 4.82727 9.02558 4.82727 8.9896C4.78529 8.82568 4.74431 8.78969 4.45245 8.82568C4.28653 8.82568 4.36949 8.9896 4.07763 9.11154C3.95169 8.9866 3.74379 8.94562 3.7028 9.10854ZM3.82775 12.1341C3.8246 12.1025 3.8096 12.0732 3.78577 12.0522V11.9712C3.77593 11.9017 3.79079 11.831 3.82775 11.7713C3.83224 11.7401 3.84701 11.7112 3.86973 11.6893C3.86972 11.6839 3.87082 11.6784 3.87294 11.6734C3.87506 11.6684 3.87817 11.6638 3.88208 11.66C3.88599 11.6562 3.89063 11.6532 3.89572 11.6512C3.9008 11.6492 3.90624 11.6482 3.91171 11.6483C3.97525 11.5983 4.04516 11.557 4.11961 11.5254C4.17342 11.5006 4.23306 11.4914 4.29185 11.4986C4.35064 11.5058 4.40625 11.5293 4.45245 11.5664C4.54479 11.6029 4.64448 11.6169 4.74331 11.6074C4.78529 11.6074 4.86826 11.4844 4.82628 11.4844C4.53541 11.4025 4.53541 11.3615 4.45145 11.0756C4.44115 11.0678 4.42911 11.0626 4.41636 11.0605C4.40361 11.0584 4.39053 11.0593 4.37825 11.0634C4.36596 11.0674 4.35484 11.0743 4.34583 11.0836C4.33682 11.0929 4.33019 11.1042 4.32651 11.1166C4.32651 10.5848 4.95022 10.5439 5.24208 10.7488C5.6169 11.0756 5.32504 11.6483 5.8248 11.8483C6.07289 11.9646 6.35665 11.9793 6.61543 11.8892C7.07322 11.6893 6.61543 11.2345 6.78135 10.8257C7.07222 10.0491 7.78088 10.0081 8.57051 10.7438C8.40221 10.8103 8.24983 10.9116 8.12328 11.041C7.99674 11.1704 7.89888 11.325 7.83608 11.4948C7.77327 11.6645 7.74694 11.8456 7.75878 12.0262C7.77063 12.2068 7.82039 12.3828 7.90482 12.5429C7.57945 12.478 7.24385 12.4846 6.92128 12.5623C6.59871 12.64 6.29688 12.7868 6.0367 12.9927C6.45251 12.5839 5.87078 12.2571 5.70386 12.338L5.45398 12.42C5.37102 12.5429 5.37102 12.6199 5.24608 12.7468C5.22618 12.7719 5.20098 12.7922 5.1723 12.8064C5.14361 12.8206 5.11215 12.8282 5.08016 12.8288C5.03848 12.8439 4.99362 12.8481 4.94986 12.8409C4.90611 12.8338 4.86493 12.8155 4.83027 12.7878C4.83027 12.7878 4.74731 12.7878 4.74731 12.8288C4.70533 12.9108 4.74731 12.9107 4.74731 12.9517C4.74731 12.9517 4.66435 12.9108 4.66435 12.8698C4.62237 12.8288 4.53941 12.7878 4.49843 12.7468C4.46776 12.7055 4.4512 12.6554 4.4512 12.6039C4.4512 12.5524 4.46776 12.5023 4.49843 12.461C4.54041 12.379 4.62337 12.338 4.66435 12.297C4.70533 12.2561 4.66435 12.1741 4.58139 12.1741C4.53946 12.1607 4.49496 12.1575 4.45153 12.1646C4.4081 12.1717 4.36697 12.189 4.33151 12.2151C4.28953 12.2561 4.20657 12.2151 4.16559 12.2561C4.16559 12.297 4.12361 12.338 4.16559 12.379C4.16873 12.4106 4.18373 12.4399 4.20757 12.461C4.1505 12.4548 4.09528 12.4371 4.04527 12.4089C3.99526 12.3807 3.95152 12.3427 3.9167 12.297C3.86873 12.2161 3.86873 12.1761 3.82775 12.1341Z" fill="#565451"/>
<path d="M6.40753 25.7097C6.69839 26.2005 6.99026 26.7322 7.3231 27.223C9.53663 30.3949 12.5905 32.8871 16.1419 34.4196C19.6803 32.8843 22.72 30.392 24.9188 27.223C25.2516 26.7322 25.5845 26.2005 25.8754 25.7097L16.1409 18.1453L6.40753 25.7097ZM14.8106 21.4567C15.0109 21.5284 15.1947 21.6395 15.3513 21.7835C14.7276 21.8655 14.0199 22.3973 13.6041 21.5836C14.0619 21.7845 14.2278 21.5796 14.8106 21.4567ZM12.3117 22.3153C12.6446 22.4382 12.6866 22.847 13.0604 22.929C13.1024 22.929 13.1853 22.847 13.1434 22.8061L13.0184 22.6831L12.9355 22.6012L12.8935 22.5192V22.3973C12.8935 22.3563 12.9355 22.2743 12.9355 22.2333C12.9355 22.1924 12.9774 22.1924 12.9774 22.1514C13.0127 22.1147 13.0562 22.0869 13.1044 22.0704V21.9435L13.1873 21.9845C13.2099 21.9817 13.2328 21.9839 13.2544 21.991C13.276 21.9981 13.2957 22.0099 13.3123 22.0254C13.3543 22.0254 13.3952 22.0664 13.4372 22.0664C13.4372 22.1074 13.4792 22.1074 13.5202 22.1074C13.5622 22.1484 13.6451 22.1484 13.6451 22.2303C13.6451 22.2358 13.6462 22.2412 13.6483 22.2463C13.6505 22.2513 13.6536 22.2559 13.6575 22.2597C13.6614 22.2635 13.666 22.2665 13.6711 22.2685C13.6762 22.2705 13.6816 22.2715 13.6871 22.2713L13.7291 22.3123C13.7861 22.4407 13.8008 22.5838 13.7711 22.7211C13.7711 22.7621 13.7291 22.8031 13.7711 22.844C13.854 23.2119 14.3538 23.3758 14.7276 23.3758C14.4777 23.5397 14.4367 24.0305 14.2278 24.1115C13.9309 24.171 13.6389 24.2529 13.3543 24.3563C13.4372 23.9885 13.3123 23.6207 12.8965 23.7836C12.7715 23.8246 12.7306 23.9835 12.5636 24.0695C12.3557 24.1924 12.1478 23.9465 11.9399 24.1105C11.8471 24.0015 11.7997 23.8611 11.8075 23.7182C11.8153 23.5754 11.8778 23.441 11.9819 23.3428C12.1478 23.2199 12.5646 23.4248 12.5226 23.2609C12.5226 23.016 11.9819 23.2199 11.8989 22.852C11.8989 22.7701 11.816 22.7701 11.733 22.7701C11.7288 22.6976 11.7421 22.6252 11.772 22.559C11.8019 22.4928 11.8474 22.4349 11.9046 22.3901C11.9618 22.3454 12.029 22.3152 12.1005 22.3022C12.1719 22.2892 12.2454 22.2937 12.3147 22.3153H12.3117ZM10.5676 26.2005C10.5676 26.2005 10.2767 26.0365 10.2347 25.9146C10.203 25.8363 10.1981 25.7498 10.2207 25.6685C10.2433 25.5871 10.2922 25.5155 10.3597 25.4648C10.4016 25.4238 10.3597 25.3829 10.3177 25.3419C9.98485 25.6277 9.77694 25.3419 9.61102 25.5058C9.58045 25.287 9.59473 25.0642 9.653 24.8511C9.94386 24.4013 10.7765 24.8921 10.6096 24.5652C10.5676 24.5243 10.4846 24.4833 10.4436 24.4423C10.4183 24.423 10.3977 24.3982 10.3834 24.3698C10.369 24.3415 10.3612 24.3102 10.3607 24.2784C10.353 24.2589 10.3414 24.2412 10.3265 24.2264C10.3117 24.2116 10.294 24.1999 10.2745 24.1923C10.255 24.1846 10.2341 24.181 10.2132 24.1817C10.1923 24.1824 10.1717 24.1874 10.1528 24.1964C10.1528 24.1554 10.1528 24.1144 10.1947 24.1144C10.1118 24.1144 10.4856 23.7876 10.6525 23.7876C10.797 23.7813 10.9398 23.8216 11.0596 23.9026C11.1795 23.9836 11.2701 24.101 11.3182 24.2374C11.4012 24.4373 11.3602 24.7282 11.6091 24.8101C12.4809 25.1574 13.4352 25.2425 14.3548 25.055C14.299 25.3057 14.3119 25.5668 14.3921 25.8108C14.4723 26.0548 14.6169 26.2727 14.8106 26.4414C14.1392 26.3133 13.493 26.077 12.8975 25.7417C12.5226 25.4968 11.8979 25.8236 11.5661 25.9416C11.6081 25.6967 11.5661 25.4508 11.3582 25.3689C11.1083 25.2869 11.0673 25.5328 11.0254 25.6957C10.9414 26.2005 10.6056 25.9956 10.5676 26.2005ZM13.2303 29.39C13.1474 29.39 13.0224 29.267 12.8145 29.4719C12.7412 29.4204 12.6542 29.3918 12.5646 29.39C12.3567 29.39 12.2738 29.5899 12.1488 29.7578C12.1068 29.7988 12.1068 29.8398 12.0659 29.8398C12.0249 29.8398 12.0239 29.8807 11.9829 29.8807C11.9245 29.8747 11.8659 29.8892 11.817 29.9217C11.775 29.9217 11.775 29.9627 11.734 29.9627V30.0397C11.6091 29.9987 11.4432 29.7128 11.4841 29.6718C11.6501 29.1811 11.6091 29.0171 11.1093 29.0991C11.0744 29.1107 11.0438 29.1325 11.0216 29.1618C10.9993 29.191 10.9863 29.2263 10.9844 29.263C10.9197 29.1494 10.8892 29.0195 10.8966 28.889C10.9041 28.7585 10.9491 28.6329 11.0264 28.5274C11.1923 28.2825 11.692 28.6503 11.692 28.4044C11.734 28.1595 11.4012 28.1186 11.2762 28.2045C11.2565 28.1389 11.2522 28.0696 11.2637 28.0021C11.2751 27.9346 11.302 27.8706 11.3423 27.8152C11.3825 27.7597 11.435 27.7143 11.4957 27.6825C11.5564 27.6507 11.6236 27.6334 11.692 27.6318C11.858 27.6318 12.1078 27.7138 12.1078 27.7957C12.1498 28.7773 13.3972 28.6953 14.0629 28.5314C14.1459 28.5314 14.2288 28.4904 14.1459 28.4084C13.854 28.0806 13.4792 27.7537 13.6871 27.3409C14.1029 26.5233 14.8516 26.8911 15.4763 27.2999C15.6389 27.3554 15.8062 27.3966 15.976 27.4229C15.2684 27.5458 15.1024 28.6493 15.6012 29.1811C14.7883 29.1505 13.9869 29.3798 13.3133 29.8358C13.3962 29.6348 13.3962 29.389 13.2293 29.389L13.2303 29.39ZM20.5099 26.8911C20.177 26.7272 19.8442 27.091 19.5943 27.3819C19.5684 27.1911 19.5848 26.9969 19.6424 26.8131C19.6999 26.6293 19.7971 26.4604 19.9272 26.3184C20.0101 26.1955 20.5509 26.2774 20.5928 26.1185C20.6348 26.0365 20.7588 25.9956 20.177 25.7097C20.344 25.7507 20.8837 25.7097 21.0506 25.8736C21.5914 24.8921 21.4664 23.3748 20.219 23.012C20.177 23.012 19.9282 23.1349 20.0521 23.2569C20.3849 23.6247 21.0516 23.9925 20.6348 24.5652C20.5928 24.6062 20.3849 24.5243 20.3849 24.6472C20.3637 24.8805 20.2934 25.1067 20.1787 25.311C20.064 25.5153 19.9074 25.693 19.7193 25.8326C19.7659 25.4825 19.73 25.1264 19.6144 24.7926C19.4988 24.4589 19.3068 24.1568 19.0536 23.9105C18.9689 23.7858 18.917 23.6419 18.9025 23.4918C18.888 23.3418 18.9114 23.1906 18.9706 23.052C19.0356 22.9118 19.1342 22.79 19.2577 22.6972C19.3811 22.6044 19.5256 22.5436 19.6783 22.5202C21.1346 22.4792 21.9242 24.3194 21.5084 25.6277C21.7583 25.5868 21.8413 25.3009 22.0911 25.2599C22.2841 25.2569 22.4731 25.3142 22.6319 25.4238C22.3803 25.5631 22.1897 25.7911 22.0973 26.0634C22.0049 26.3356 22.0173 26.6325 22.1321 26.8961C21.2585 26.9371 21.0506 27.9596 20.6328 28.5723C20.3457 28.907 19.9461 29.1249 19.5093 29.1852C19.0726 29.2454 18.6289 29.1437 18.2619 28.8992C18.2619 28.8992 18.179 28.9402 18.179 28.9812C18.2619 29.6808 18.9276 30.0447 19.4684 30.3305C18.9686 30.7803 18.6368 31.394 18.179 31.8438L18.0131 32.0077C17.9711 32.0897 17.8461 32.0897 17.7222 32.0897C17.7222 32.1717 17.6392 32.2126 17.5973 32.2896C17.5748 32.3119 17.5457 32.3263 17.5143 32.3306H17.4313C17.3064 32.3716 17.2234 32.2486 17.0575 32.2486C17.1825 32.2486 17.2234 32.0487 17.1825 32.0037C16.9326 31.7179 16.5168 32.0857 16.3918 32.3306C16.3089 32.4945 16.4338 32.6574 16.2259 32.7394C16.101 32.7804 15.935 32.6984 15.8101 32.7394C15.762 32.7449 15.7179 32.7688 15.687 32.806C15.6561 32.8433 15.6408 32.891 15.6442 32.9393C15.3113 32.4895 15.6862 32.1217 16.102 31.8398C16.1439 31.7988 16.102 31.7169 16.019 31.7169C15.8531 31.6759 15.7281 31.7988 15.6032 31.8808C15.3953 32.0037 15.2704 31.6349 15.0205 31.7578C14.9785 31.6349 15.1034 31.513 15.1454 31.431C15.2389 31.3049 15.3684 31.2101 15.5169 31.159C15.6653 31.108 15.8258 31.1032 15.977 31.1451C16.102 31.1861 16.3099 31.472 16.3099 31.2681C16.3099 31.1042 15.935 31.1042 15.977 30.8183C15.977 30.7773 15.977 30.6953 15.8521 30.6953C16.1429 30.3275 16.9336 30.5314 16.8516 30.8593C16.7686 31.2681 17.3514 31.7179 17.5583 31.5589C17.8491 31.359 18.141 30.7823 18.0161 30.6594C17.3084 29.8827 15.8111 29.8418 15.6452 28.6153C15.6426 28.4809 15.6714 28.3477 15.7292 28.2263C15.7869 28.1048 15.8721 27.9985 15.978 27.9157C16.1554 27.8128 16.3558 27.7564 16.5607 27.7517C16.8106 27.7517 16.8936 27.9157 17.1845 27.8747C16.7223 27.3807 16.1303 27.027 15.4763 26.8542C15.317 26.8111 15.1682 26.7359 15.039 26.6332C14.9098 26.5305 14.8029 26.4025 14.7249 26.2571C14.647 26.1117 14.5995 25.9518 14.5856 25.7874C14.5716 25.623 14.5914 25.4574 14.6436 25.3009C14.7266 25.1779 15.2264 25.2599 15.4753 25.2599C15.6412 25.2599 15.7251 25.096 15.8911 25.06C16.237 25.606 16.6903 26.0759 17.2234 26.4414C17.3904 26.5233 17.3064 26.1145 17.6392 26.0325C18.0141 26.7682 17.6392 27.6678 18.18 28.4044C18.342 28.6398 18.5742 28.8179 18.8434 28.9134C19.1127 29.0089 19.4052 29.0169 19.6793 28.9362C20.4679 28.5304 21.2165 27.263 20.5089 26.8951L20.5099 26.8911ZM18.2629 21.8655C18.2629 22.965 17.7632 23.9505 18.0131 25.137C18.055 25.2599 18.3039 25.6687 18.179 25.6277C18.054 25.5868 17.7632 25.3009 17.5963 25.4278C17.3884 25.5918 17.4293 25.8366 17.3054 25.7547C16.9042 25.5516 16.582 25.2207 16.3898 24.8141C16.3029 24.6422 16.3498 24.3194 16.3029 24.3603C15.9392 24.6227 15.5029 24.7656 15.0545 24.7691C15.1464 24.6203 15.2032 24.4525 15.2204 24.2784C14.8875 24.1144 14.4297 24.6462 14.4297 24.6052C14.434 24.5088 14.4481 24.413 14.4717 24.3194C14.5702 23.9456 14.7582 23.6014 15.0194 23.3165C15.2806 23.0316 15.6072 22.8146 15.971 22.6841C16.8026 22.4392 17.7182 22.0304 17.9261 21.1309C18.0307 21.2228 18.1148 21.3357 18.1729 21.4623C18.2309 21.5889 18.2616 21.7263 18.2629 21.8655ZM17.0565 20.4352C17.2115 20.4979 17.3818 20.5124 17.5452 20.4767C17.7085 20.441 17.8573 20.3569 17.9721 20.2353C18.097 20.6851 17.6812 20.726 17.5973 20.9709C17.4723 21.2978 17.4723 21.6256 17.1815 21.7885C16.4965 22.1807 15.7515 22.4569 14.9765 22.6062C14.9765 22.5242 14.9345 22.3613 15.0595 22.3613C15.1747 22.3518 15.2854 22.3124 15.3808 22.247C15.4762 22.1816 15.5528 22.0925 15.6032 21.9885C15.6862 21.7885 15.6032 21.2528 15.3953 21.1708C15.1874 21.0479 14.9795 21.2528 14.7716 21.3348C14.6886 21.1349 15.0215 20.721 15.6032 20.762C15.6032 20.762 15.8941 20.4352 15.8531 20.4762C16.1409 20.1893 16.5577 20.3122 17.0565 20.4352Z" fill="#565451"/>
<path d="M16.0621 21.0072C16.1871 21.0482 16.5611 20.8432 16.7281 20.7562C16.7701 20.7562 16.7701 20.7202 16.8111 20.6792C16.7035 20.6455 16.5906 20.6316 16.4781 20.6382C16.3951 20.6382 16.3531 20.5562 16.2701 20.5562H16.1871C16.1451 20.5562 16.1451 20.5972 16.1031 20.5972C16.0805 20.5944 16.0576 20.5966 16.036 20.6037C16.0144 20.6108 15.9946 20.6226 15.9781 20.6382C15.9371 20.6792 15.8951 20.7202 15.8951 20.7562C15.8877 20.8157 15.9027 20.8759 15.9371 20.9252C15.9781 20.9662 16.0201 21.0072 16.0621 21.0072Z" fill="#565451"/>
</g>
<defs>
<clipPath id="clip0_1_127">
<rect width="151.999" height="35.5312" fill="white" transform="translate(0.50032 0.5625)"/>
</clipPath>
</defs>
</svg>
